G04 (created by PCBNEW (2013-feb-26)-stable) date Fri 29 Mar 2013 16:55:54 GMT*
%MOIN*%
G04 Gerber Fmt 3.4, Leading zero omitted, Abs format*
%FSLAX34Y34*%
G01*
G70*
G90*
G04 APERTURE LIST*
%ADD10C,2.3622e-06*%
%ADD11C,0.0512*%
%ADD12R,0.0984X0.0197*%
%ADD13R,0.0984X0.0787*%
%ADD14C,0.0354*%
%ADD15R,0.016X0.06*%
%ADD16R,0.06X0.016*%
%ADD17R,0.1181X0.0512*%
%ADD18R,0.035X0.055*%
%ADD19R,0.055X0.035*%
%ADD20R,0.2165X0.0787*%
%ADD21R,0.0472X0.0472*%
%ADD22C,0.5906*%
%ADD23R,0.0591X0.0394*%
%ADD24R,0.06X0.06*%
%ADD25C,0.06*%
%ADD26C,0.0551*%
%ADD27C,0.0118*%
%ADD28C,0.01*%
G04 APERTURE END LIST*
G54D10*
G54D11*
X40945Y-19685D03*
G54D12*
X20500Y-26620D03*
X20500Y-26935D03*
X20500Y-27250D03*
X20500Y-27565D03*
X20500Y-27880D03*
G54D13*
X20500Y-25498D03*
X20500Y-29002D03*
X18335Y-29002D03*
X18335Y-25498D03*
G54D14*
X19516Y-26384D03*
X19516Y-28116D03*
G54D15*
X29528Y-25703D03*
X29213Y-25703D03*
X28898Y-25703D03*
X28583Y-25703D03*
X28268Y-25703D03*
X27953Y-25703D03*
X29843Y-25703D03*
X30158Y-25703D03*
X30473Y-25703D03*
X30788Y-25703D03*
X31103Y-25703D03*
X29528Y-30203D03*
X29213Y-30203D03*
X28898Y-30203D03*
X28583Y-30203D03*
X28268Y-30203D03*
X27953Y-30203D03*
X29843Y-30203D03*
X30158Y-30203D03*
X30473Y-30203D03*
X30788Y-30203D03*
X31103Y-30203D03*
G54D16*
X27278Y-27953D03*
X31778Y-27953D03*
X27278Y-28268D03*
X31778Y-28268D03*
X31778Y-28583D03*
X27278Y-28583D03*
X27278Y-28898D03*
X31778Y-28898D03*
X31778Y-29213D03*
X27278Y-29213D03*
X27278Y-29528D03*
X31778Y-29528D03*
X31778Y-27638D03*
X27278Y-27638D03*
X27278Y-27323D03*
X31778Y-27323D03*
X31778Y-27008D03*
X27278Y-27008D03*
X27278Y-26693D03*
X31778Y-26693D03*
X31778Y-26378D03*
X27278Y-26378D03*
G54D17*
X19079Y-30988D03*
X21079Y-30988D03*
X19079Y-31988D03*
X21079Y-31988D03*
X19079Y-32988D03*
X21079Y-32988D03*
G54D18*
X28131Y-31299D03*
X27381Y-31299D03*
X23838Y-26773D03*
X24588Y-26773D03*
X24588Y-27560D03*
X23838Y-27560D03*
X33090Y-24606D03*
X33840Y-24606D03*
X33090Y-25295D03*
X33840Y-25295D03*
X33090Y-27362D03*
X33840Y-27362D03*
G54D19*
X22343Y-25670D03*
X22343Y-24920D03*
X35531Y-32794D03*
X35531Y-33544D03*
X28642Y-32794D03*
X28642Y-33544D03*
G54D18*
X27775Y-24606D03*
X28525Y-24606D03*
G54D19*
X32677Y-29842D03*
X32677Y-30592D03*
G54D18*
X26359Y-28150D03*
X25609Y-28150D03*
G54D19*
X31398Y-24883D03*
X31398Y-24133D03*
X27067Y-24723D03*
X27067Y-25473D03*
X28937Y-31318D03*
X28937Y-32068D03*
G54D20*
X30237Y-33169D03*
X33937Y-33169D03*
G54D21*
X35118Y-24803D03*
X35944Y-24803D03*
X35118Y-24016D03*
X35944Y-24016D03*
G54D22*
X34252Y-19685D03*
X27559Y-19685D03*
X20866Y-19685D03*
G54D11*
X40945Y-31496D03*
X40945Y-27559D03*
X40945Y-23622D03*
G54D18*
X33090Y-26673D03*
X33840Y-26673D03*
X33090Y-25984D03*
X33840Y-25984D03*
G54D23*
X34646Y-25787D03*
X34646Y-26476D03*
X34646Y-27165D03*
X36615Y-25788D03*
X36615Y-26477D03*
X36615Y-27166D03*
G54D19*
X26083Y-24723D03*
X26083Y-25473D03*
X29232Y-24588D03*
X29232Y-23838D03*
X29921Y-24588D03*
X29921Y-23838D03*
X30610Y-24588D03*
X30610Y-23838D03*
G54D18*
X34861Y-28150D03*
X35611Y-28150D03*
X33483Y-28445D03*
X34233Y-28445D03*
X34861Y-29134D03*
X35611Y-29134D03*
X33483Y-29429D03*
X34233Y-29429D03*
G54D24*
X37500Y-32000D03*
G54D25*
X37500Y-33000D03*
X37500Y-34000D03*
G54D26*
X32185Y-24114D03*
X22047Y-32972D03*
X26969Y-24016D03*
X30807Y-28051D03*
X30413Y-26673D03*
X36614Y-24409D03*
X28642Y-26673D03*
X32087Y-34055D03*
X32283Y-31890D03*
X28642Y-34055D03*
X28150Y-32087D03*
X29429Y-28740D03*
X28150Y-27657D03*
X35531Y-34055D03*
X21555Y-27854D03*
X31890Y-30315D03*
X23031Y-24902D03*
X35630Y-26575D03*
G54D27*
X31778Y-29213D02*
X30493Y-29213D01*
X21968Y-25670D02*
X22343Y-25670D01*
X30493Y-29213D02*
X30217Y-28937D01*
X32677Y-29527D02*
X32363Y-29213D01*
X28918Y-31299D02*
X28937Y-31318D01*
X28583Y-30203D02*
X28583Y-29666D01*
X30217Y-28937D02*
X30217Y-27657D01*
X28642Y-27461D02*
X28642Y-27657D01*
X31103Y-26771D02*
X30217Y-27657D01*
X30217Y-27657D02*
X28642Y-27657D01*
X27874Y-26693D02*
X28642Y-27461D01*
X28326Y-29409D02*
X28326Y-28268D01*
X27278Y-26693D02*
X27874Y-26693D01*
X28326Y-28268D02*
X27278Y-28268D01*
X20500Y-26620D02*
X21018Y-26620D01*
X19936Y-26620D02*
X19094Y-27462D01*
X19094Y-27462D02*
X19094Y-29527D01*
X19094Y-29527D02*
X20555Y-30988D01*
X20555Y-30988D02*
X21079Y-30988D01*
X20500Y-26620D02*
X19936Y-26620D01*
X28642Y-27952D02*
X28326Y-28268D01*
X28642Y-27657D02*
X28642Y-27952D01*
X24409Y-24723D02*
X24096Y-24723D01*
X32363Y-29213D02*
X31778Y-29213D01*
X31103Y-25703D02*
X31103Y-26771D01*
X23819Y-25670D02*
X25374Y-25670D01*
X21018Y-26620D02*
X21968Y-25670D01*
X23819Y-25000D02*
X23819Y-25670D01*
X24096Y-24723D02*
X23819Y-25000D01*
X23819Y-25670D02*
X23819Y-25689D01*
X23425Y-25670D02*
X23819Y-25670D01*
X28131Y-31299D02*
X28918Y-31299D01*
X26083Y-25984D02*
X26792Y-26693D01*
X25374Y-25670D02*
X25688Y-25984D01*
X25688Y-25984D02*
X26083Y-25984D01*
X26792Y-26693D02*
X27278Y-26693D01*
X23819Y-25689D02*
X23819Y-25670D01*
X28583Y-30203D02*
X28583Y-30964D01*
X26083Y-24723D02*
X24409Y-24723D01*
X24409Y-24723D02*
X24392Y-24723D01*
X23445Y-25670D02*
X23425Y-25670D01*
X32677Y-29842D02*
X32677Y-29527D01*
X23425Y-25670D02*
X22343Y-25670D01*
X31103Y-25703D02*
X31103Y-24982D01*
X28583Y-30964D02*
X28937Y-31318D01*
X31103Y-24982D02*
X31398Y-24883D01*
X28583Y-29666D02*
X28326Y-29409D01*
X26672Y-29528D02*
X23720Y-32480D01*
X18209Y-32283D02*
X18209Y-31103D01*
X27278Y-29528D02*
X26672Y-29528D01*
X18324Y-30988D02*
X19079Y-30988D01*
X23720Y-32480D02*
X18406Y-32480D01*
X18406Y-32480D02*
X18209Y-32283D01*
X18209Y-31103D02*
X18324Y-30988D01*
X21079Y-31988D02*
X23820Y-31988D01*
X26595Y-29213D02*
X27278Y-29213D01*
X23820Y-31988D02*
X26595Y-29213D01*
X19079Y-33056D02*
X19586Y-33563D01*
X25787Y-33563D02*
X27381Y-31969D01*
X28150Y-30709D02*
X27658Y-30709D01*
X27381Y-31969D02*
X27381Y-31299D01*
X27381Y-30986D02*
X27381Y-31299D01*
X19079Y-32988D02*
X19079Y-33056D01*
X27658Y-30709D02*
X27381Y-30986D01*
X28268Y-30591D02*
X28150Y-30709D01*
X19586Y-33563D02*
X25787Y-33563D01*
X28268Y-30203D02*
X28268Y-30591D01*
X20079Y-31496D02*
X23917Y-31496D01*
X19587Y-31988D02*
X20079Y-31496D01*
X19079Y-31988D02*
X19587Y-31988D01*
X26515Y-28898D02*
X27278Y-28898D01*
X23917Y-31496D02*
X26515Y-28898D01*
X31778Y-25407D02*
X32579Y-24606D01*
X31778Y-26378D02*
X31778Y-25407D01*
X32579Y-24606D02*
X33090Y-24606D01*
X32165Y-26693D02*
X31778Y-26693D01*
X32283Y-25492D02*
X32283Y-26575D01*
X32283Y-26575D02*
X32165Y-26693D01*
X32480Y-25295D02*
X32283Y-25492D01*
X33090Y-25295D02*
X32480Y-25295D01*
X32677Y-25984D02*
X33090Y-25984D01*
X31778Y-27008D02*
X32244Y-27008D01*
X32503Y-26749D02*
X32503Y-26158D01*
X32503Y-26158D02*
X32677Y-25984D01*
X32244Y-27008D02*
X32503Y-26749D01*
X32814Y-27638D02*
X33090Y-27362D01*
X31778Y-27638D02*
X32814Y-27638D01*
X31778Y-27323D02*
X32322Y-27323D01*
X32322Y-27323D02*
X32972Y-26673D01*
X32972Y-26673D02*
X33090Y-26673D01*
X37834Y-27421D02*
X37834Y-21023D01*
X35611Y-28150D02*
X37106Y-28150D01*
X39173Y-19685D02*
X40945Y-19685D01*
X37106Y-28150D02*
X37834Y-27421D01*
X37834Y-21023D02*
X39173Y-19685D01*
X34449Y-28642D02*
X37303Y-28642D01*
X38780Y-23622D02*
X38248Y-24153D01*
X38248Y-24153D02*
X38248Y-27696D01*
X38248Y-27696D02*
X37402Y-28543D01*
X40945Y-23622D02*
X38780Y-23622D01*
X37303Y-28642D02*
X37402Y-28543D01*
X34252Y-28445D02*
X34449Y-28642D01*
X34233Y-28445D02*
X34252Y-28445D01*
X38386Y-29134D02*
X39961Y-27559D01*
X39961Y-27559D02*
X40945Y-27559D01*
X35611Y-29134D02*
X38386Y-29134D01*
X38090Y-30118D02*
X34922Y-30118D01*
X40945Y-31496D02*
X39468Y-31496D01*
X34922Y-30118D02*
X34233Y-29429D01*
X39468Y-31496D02*
X38090Y-30118D01*
X32087Y-34055D02*
X28642Y-34055D01*
X25609Y-27836D02*
X25609Y-28150D01*
X25807Y-27638D02*
X25609Y-27836D01*
X31674Y-24133D02*
X32185Y-24114D01*
X36615Y-27166D02*
X36615Y-26477D01*
X27278Y-27638D02*
X28032Y-27638D01*
X28169Y-32068D02*
X28150Y-32087D01*
X27971Y-24822D02*
X27775Y-24606D01*
X28268Y-25119D02*
X27971Y-24822D01*
X36615Y-25474D02*
X35944Y-24803D01*
X28445Y-26673D02*
X28642Y-26673D01*
X20500Y-27880D02*
X21529Y-27880D01*
X31398Y-24133D02*
X31674Y-24133D01*
X21529Y-27880D02*
X21555Y-27854D01*
X28268Y-25703D02*
X28268Y-25119D01*
X28937Y-32068D02*
X28169Y-32068D01*
X32677Y-30592D02*
X31909Y-30296D01*
X36615Y-26477D02*
X36615Y-25788D01*
X28268Y-26496D02*
X28445Y-26673D01*
X31778Y-30203D02*
X31890Y-30315D01*
X27278Y-27638D02*
X25807Y-27638D01*
X28032Y-27638D02*
X28150Y-27657D01*
X22031Y-32988D02*
X22047Y-32972D01*
X22343Y-24920D02*
X23013Y-24920D01*
X35728Y-26477D02*
X35630Y-26575D01*
X28898Y-29567D02*
X29429Y-28740D01*
X35944Y-24409D02*
X36614Y-24409D01*
X27067Y-24705D02*
X26969Y-24016D01*
X35531Y-33544D02*
X35531Y-34055D01*
X28898Y-29567D02*
X28898Y-30203D01*
X29429Y-28838D02*
X29429Y-28740D01*
X28642Y-34055D02*
X28642Y-33544D01*
X31778Y-29528D02*
X30119Y-29528D01*
X30119Y-29528D02*
X29429Y-28838D01*
X21079Y-32988D02*
X22031Y-32988D01*
X30788Y-26359D02*
X30413Y-26673D01*
X36615Y-26477D02*
X35728Y-26477D01*
X27067Y-24723D02*
X27067Y-24705D01*
X30788Y-25703D02*
X30788Y-26359D01*
X36615Y-25788D02*
X36615Y-25474D01*
X31778Y-30203D02*
X31778Y-29528D01*
X27067Y-24723D02*
X27854Y-24723D01*
X23013Y-24920D02*
X23031Y-24902D01*
X31909Y-30296D02*
X31890Y-30315D01*
X35944Y-24016D02*
X35944Y-24409D01*
X27854Y-24723D02*
X27775Y-24606D01*
X28268Y-25703D02*
X28268Y-26496D01*
X35944Y-24409D02*
X35944Y-24803D01*
X32539Y-28898D02*
X33070Y-29429D01*
X33070Y-29429D02*
X33483Y-29429D01*
X31778Y-28898D02*
X32539Y-28898D01*
X29843Y-25703D02*
X29843Y-25315D01*
X29232Y-24704D02*
X29232Y-24588D01*
X29843Y-25315D02*
X29232Y-24704D01*
X30158Y-25703D02*
X30158Y-25237D01*
X30158Y-25237D02*
X29921Y-25000D01*
X29921Y-25000D02*
X29921Y-24588D01*
X31778Y-28268D02*
X33306Y-28268D01*
X33306Y-28268D02*
X33483Y-28445D01*
X30473Y-25137D02*
X30610Y-25000D01*
X30610Y-25000D02*
X30610Y-24588D01*
X30473Y-25703D02*
X30473Y-25137D01*
X34449Y-28937D02*
X34646Y-29134D01*
X31778Y-28583D02*
X32815Y-28583D01*
X34646Y-29134D02*
X34861Y-29134D01*
X33169Y-28937D02*
X34449Y-28937D01*
X32815Y-28583D02*
X33169Y-28937D01*
X27933Y-25473D02*
X27067Y-25473D01*
X27953Y-25493D02*
X27933Y-25473D01*
X27953Y-25703D02*
X27953Y-25493D01*
X26083Y-25473D02*
X27067Y-25473D01*
X28583Y-24744D02*
X28525Y-24606D01*
X28583Y-25703D02*
X28583Y-24744D01*
X35531Y-32794D02*
X34312Y-32794D01*
X29528Y-30512D02*
X31398Y-32382D01*
X33937Y-32657D02*
X33937Y-33169D01*
X29528Y-30203D02*
X29528Y-30512D01*
X33662Y-32382D02*
X33937Y-32657D01*
X31398Y-32382D02*
X33662Y-32382D01*
X34312Y-32794D02*
X33937Y-33169D01*
X27278Y-27953D02*
X26556Y-27953D01*
X26556Y-27953D02*
X26359Y-28150D01*
X30610Y-23327D02*
X34252Y-19685D01*
X30610Y-23838D02*
X30610Y-23327D01*
X29921Y-23838D02*
X29921Y-22047D01*
X29921Y-22047D02*
X27559Y-19685D01*
X24311Y-23130D02*
X20866Y-19685D01*
X29232Y-23838D02*
X29232Y-23524D01*
X29232Y-23524D02*
X28838Y-23130D01*
X28838Y-23130D02*
X24311Y-23130D01*
X28642Y-32794D02*
X29862Y-32794D01*
X29921Y-31299D02*
X29921Y-32853D01*
X29213Y-30203D02*
X29213Y-30591D01*
X29921Y-32853D02*
X30237Y-33169D01*
X29862Y-32794D02*
X30237Y-33169D01*
X29213Y-30591D02*
X29921Y-31299D01*
X34154Y-24606D02*
X33840Y-24606D01*
X35118Y-24016D02*
X34744Y-24016D01*
X34744Y-24016D02*
X34154Y-24606D01*
X34646Y-24803D02*
X34154Y-25295D01*
X35118Y-24803D02*
X34646Y-24803D01*
X34154Y-25295D02*
X33840Y-25295D01*
X36602Y-31102D02*
X37500Y-32000D01*
X31200Y-31102D02*
X36602Y-31102D01*
X30788Y-30203D02*
X30788Y-30690D01*
X30788Y-30690D02*
X31200Y-31102D01*
X36811Y-32086D02*
X36811Y-32775D01*
X30473Y-30203D02*
X30473Y-30768D01*
X37036Y-33000D02*
X37500Y-33000D01*
X36123Y-31398D02*
X36811Y-32086D01*
X30473Y-30768D02*
X31103Y-31398D01*
X31103Y-31398D02*
X36123Y-31398D01*
X36811Y-32775D02*
X37036Y-33000D01*
X25335Y-27008D02*
X25100Y-26773D01*
X27278Y-27008D02*
X25335Y-27008D01*
X25100Y-26773D02*
X24588Y-26773D01*
X23227Y-26773D02*
X23838Y-26773D01*
X23065Y-26935D02*
X23227Y-26773D01*
X20500Y-26935D02*
X23065Y-26935D01*
X23310Y-27560D02*
X23838Y-27560D01*
X23000Y-27250D02*
X23310Y-27560D01*
X20500Y-27250D02*
X23000Y-27250D01*
X25097Y-27560D02*
X24588Y-27560D01*
X25334Y-27323D02*
X25097Y-27560D01*
X27278Y-27323D02*
X25334Y-27323D01*
X34664Y-27953D02*
X34861Y-28150D01*
X31778Y-27953D02*
X34664Y-27953D01*
X34037Y-27165D02*
X33840Y-27362D01*
X34646Y-27165D02*
X34037Y-27165D01*
X34037Y-25787D02*
X33840Y-25984D01*
X34646Y-25787D02*
X34037Y-25787D01*
X34037Y-26476D02*
X33840Y-26673D01*
X34646Y-26476D02*
X34037Y-26476D01*
G54D10*
G36*
X43257Y-21376D02*
X40945Y-20220D01*
X38633Y-21376D01*
X38633Y-17743D01*
X40760Y-16325D01*
X41129Y-16325D01*
X43257Y-17743D01*
X43257Y-21376D01*
X43257Y-21376D01*
G37*
G54D28*
X43257Y-21376D02*
X40945Y-20220D01*
X38633Y-21376D01*
X38633Y-17743D01*
X40760Y-16325D01*
X41129Y-16325D01*
X43257Y-17743D01*
X43257Y-21376D01*
G54D10*
G36*
X43257Y-25313D02*
X40945Y-24157D01*
X38633Y-25313D01*
X38633Y-21684D01*
X40945Y-20527D01*
X43257Y-21684D01*
X43257Y-25313D01*
X43257Y-25313D01*
G37*
G54D28*
X43257Y-25313D02*
X40945Y-24157D01*
X38633Y-25313D01*
X38633Y-21684D01*
X40945Y-20527D01*
X43257Y-21684D01*
X43257Y-25313D01*
G54D10*
G36*
X43257Y-29250D02*
X40945Y-28094D01*
X38633Y-29250D01*
X38633Y-25621D01*
X40945Y-24464D01*
X43257Y-25621D01*
X43257Y-29250D01*
X43257Y-29250D01*
G37*
G54D28*
X43257Y-29250D02*
X40945Y-28094D01*
X38633Y-29250D01*
X38633Y-25621D01*
X40945Y-24464D01*
X43257Y-25621D01*
X43257Y-29250D01*
G54D10*
G36*
X43257Y-33567D02*
X40945Y-32026D01*
X38633Y-33567D01*
X38633Y-29558D01*
X40945Y-28401D01*
X43257Y-29558D01*
X43257Y-33567D01*
X43257Y-33567D01*
G37*
G54D28*
X43257Y-33567D02*
X40945Y-32026D01*
X38633Y-33567D01*
X38633Y-29558D01*
X40945Y-28401D01*
X43257Y-29558D01*
X43257Y-33567D01*
G54D10*
G36*
X36565Y-34265D02*
X35954Y-34265D01*
X35954Y-33748D01*
X35954Y-33339D01*
X35931Y-33285D01*
X35889Y-33243D01*
X35835Y-33221D01*
X35776Y-33220D01*
X35705Y-33221D01*
X35668Y-33258D01*
X35668Y-33456D01*
X35917Y-33456D01*
X35954Y-33419D01*
X35954Y-33339D01*
X35954Y-33748D01*
X35954Y-33668D01*
X35917Y-33631D01*
X35668Y-33631D01*
X35668Y-33830D01*
X35705Y-33867D01*
X35776Y-33867D01*
X35835Y-33866D01*
X35889Y-33844D01*
X35931Y-33802D01*
X35954Y-33748D01*
X35954Y-34265D01*
X28504Y-34265D01*
X28504Y-33830D01*
X28504Y-33631D01*
X28504Y-33456D01*
X28504Y-33258D01*
X28467Y-33221D01*
X28396Y-33220D01*
X28337Y-33221D01*
X28283Y-33243D01*
X28241Y-33285D01*
X28218Y-33339D01*
X28219Y-33419D01*
X28256Y-33456D01*
X28504Y-33456D01*
X28504Y-33631D01*
X28256Y-33631D01*
X28219Y-33668D01*
X28218Y-33748D01*
X28241Y-33802D01*
X28283Y-33844D01*
X28337Y-33866D01*
X28396Y-33867D01*
X28467Y-33867D01*
X28504Y-33830D01*
X28504Y-34265D01*
X28003Y-34265D01*
X28003Y-32530D01*
X28179Y-32530D01*
X28160Y-32577D01*
X28159Y-32659D01*
X28159Y-33009D01*
X28191Y-33086D01*
X28249Y-33144D01*
X28325Y-33175D01*
X28407Y-33176D01*
X28947Y-33176D01*
X28947Y-33221D01*
X28946Y-33221D01*
X28887Y-33220D01*
X28816Y-33221D01*
X28779Y-33258D01*
X28779Y-33456D01*
X28849Y-33456D01*
X28849Y-33631D01*
X28779Y-33631D01*
X28779Y-33830D01*
X28816Y-33867D01*
X28887Y-33867D01*
X28946Y-33866D01*
X29000Y-33844D01*
X29042Y-33802D01*
X29064Y-33749D01*
X29113Y-33769D01*
X29195Y-33769D01*
X31360Y-33769D01*
X31436Y-33738D01*
X31494Y-33679D01*
X31526Y-33603D01*
X31526Y-33521D01*
X31526Y-32734D01*
X31495Y-32658D01*
X31484Y-32648D01*
X32689Y-32648D01*
X32679Y-32658D01*
X32647Y-32734D01*
X32647Y-32816D01*
X32647Y-33603D01*
X32678Y-33679D01*
X32737Y-33737D01*
X32813Y-33769D01*
X32895Y-33769D01*
X35060Y-33769D01*
X35108Y-33749D01*
X35130Y-33802D01*
X35172Y-33844D01*
X35226Y-33866D01*
X35285Y-33867D01*
X35356Y-33867D01*
X35393Y-33830D01*
X35393Y-33631D01*
X35323Y-33631D01*
X35323Y-33456D01*
X35393Y-33456D01*
X35393Y-33258D01*
X35356Y-33221D01*
X35285Y-33220D01*
X35226Y-33221D01*
X35226Y-33175D01*
X35296Y-33176D01*
X35846Y-33176D01*
X35923Y-33144D01*
X35981Y-33086D01*
X36012Y-33010D01*
X36013Y-32928D01*
X36013Y-32578D01*
X35981Y-32501D01*
X35923Y-32443D01*
X35847Y-32412D01*
X35765Y-32411D01*
X35215Y-32411D01*
X35138Y-32443D01*
X35080Y-32501D01*
X35069Y-32528D01*
X34312Y-32528D01*
X34210Y-32548D01*
X34184Y-32565D01*
X34182Y-32555D01*
X34182Y-32555D01*
X34125Y-32468D01*
X33850Y-32193D01*
X33763Y-32136D01*
X33662Y-32115D01*
X33661Y-32116D01*
X31508Y-32116D01*
X31044Y-31652D01*
X31103Y-31664D01*
X33218Y-31664D01*
X33218Y-31743D01*
X36091Y-31743D01*
X36545Y-32196D01*
X36545Y-32774D01*
X36544Y-32775D01*
X36565Y-32875D01*
X36565Y-34265D01*
X36565Y-34265D01*
G37*
G54D28*
X36565Y-34265D02*
X35954Y-34265D01*
X35954Y-33748D01*
X35954Y-33339D01*
X35931Y-33285D01*
X35889Y-33243D01*
X35835Y-33221D01*
X35776Y-33220D01*
X35705Y-33221D01*
X35668Y-33258D01*
X35668Y-33456D01*
X35917Y-33456D01*
X35954Y-33419D01*
X35954Y-33339D01*
X35954Y-33748D01*
X35954Y-33668D01*
X35917Y-33631D01*
X35668Y-33631D01*
X35668Y-33830D01*
X35705Y-33867D01*
X35776Y-33867D01*
X35835Y-33866D01*
X35889Y-33844D01*
X35931Y-33802D01*
X35954Y-33748D01*
X35954Y-34265D01*
X28504Y-34265D01*
X28504Y-33830D01*
X28504Y-33631D01*
X28504Y-33456D01*
X28504Y-33258D01*
X28467Y-33221D01*
X28396Y-33220D01*
X28337Y-33221D01*
X28283Y-33243D01*
X28241Y-33285D01*
X28218Y-33339D01*
X28219Y-33419D01*
X28256Y-33456D01*
X28504Y-33456D01*
X28504Y-33631D01*
X28256Y-33631D01*
X28219Y-33668D01*
X28218Y-33748D01*
X28241Y-33802D01*
X28283Y-33844D01*
X28337Y-33866D01*
X28396Y-33867D01*
X28467Y-33867D01*
X28504Y-33830D01*
X28504Y-34265D01*
X28003Y-34265D01*
X28003Y-32530D01*
X28179Y-32530D01*
X28160Y-32577D01*
X28159Y-32659D01*
X28159Y-33009D01*
X28191Y-33086D01*
X28249Y-33144D01*
X28325Y-33175D01*
X28407Y-33176D01*
X28947Y-33176D01*
X28947Y-33221D01*
X28946Y-33221D01*
X28887Y-33220D01*
X28816Y-33221D01*
X28779Y-33258D01*
X28779Y-33456D01*
X28849Y-33456D01*
X28849Y-33631D01*
X28779Y-33631D01*
X28779Y-33830D01*
X28816Y-33867D01*
X28887Y-33867D01*
X28946Y-33866D01*
X29000Y-33844D01*
X29042Y-33802D01*
X29064Y-33749D01*
X29113Y-33769D01*
X29195Y-33769D01*
X31360Y-33769D01*
X31436Y-33738D01*
X31494Y-33679D01*
X31526Y-33603D01*
X31526Y-33521D01*
X31526Y-32734D01*
X31495Y-32658D01*
X31484Y-32648D01*
X32689Y-32648D01*
X32679Y-32658D01*
X32647Y-32734D01*
X32647Y-32816D01*
X32647Y-33603D01*
X32678Y-33679D01*
X32737Y-33737D01*
X32813Y-33769D01*
X32895Y-33769D01*
X35060Y-33769D01*
X35108Y-33749D01*
X35130Y-33802D01*
X35172Y-33844D01*
X35226Y-33866D01*
X35285Y-33867D01*
X35356Y-33867D01*
X35393Y-33830D01*
X35393Y-33631D01*
X35323Y-33631D01*
X35323Y-33456D01*
X35393Y-33456D01*
X35393Y-33258D01*
X35356Y-33221D01*
X35285Y-33220D01*
X35226Y-33221D01*
X35226Y-33175D01*
X35296Y-33176D01*
X35846Y-33176D01*
X35923Y-33144D01*
X35981Y-33086D01*
X36012Y-33010D01*
X36013Y-32928D01*
X36013Y-32578D01*
X35981Y-32501D01*
X35923Y-32443D01*
X35847Y-32412D01*
X35765Y-32411D01*
X35215Y-32411D01*
X35138Y-32443D01*
X35080Y-32501D01*
X35069Y-32528D01*
X34312Y-32528D01*
X34210Y-32548D01*
X34184Y-32565D01*
X34182Y-32555D01*
X34182Y-32555D01*
X34125Y-32468D01*
X33850Y-32193D01*
X33763Y-32136D01*
X33662Y-32115D01*
X33661Y-32116D01*
X31508Y-32116D01*
X31044Y-31652D01*
X31103Y-31664D01*
X33218Y-31664D01*
X33218Y-31743D01*
X36091Y-31743D01*
X36545Y-32196D01*
X36545Y-32774D01*
X36544Y-32775D01*
X36565Y-32875D01*
X36565Y-34265D01*
G54D10*
G36*
X28376Y-27841D02*
X28215Y-28002D01*
X27904Y-28002D01*
X27904Y-27099D01*
X28376Y-27571D01*
X28376Y-27657D01*
X28376Y-27841D01*
X28376Y-27841D01*
G37*
G54D28*
X28376Y-27841D02*
X28215Y-28002D01*
X27904Y-28002D01*
X27904Y-27099D01*
X28376Y-27571D01*
X28376Y-27657D01*
X28376Y-27841D01*
G54D10*
G36*
X30837Y-26660D02*
X30106Y-27391D01*
X28894Y-27391D01*
X28887Y-27359D01*
X28887Y-27359D01*
X28830Y-27272D01*
X28830Y-27272D01*
X28062Y-26504D01*
X27975Y-26447D01*
X27904Y-26432D01*
X27904Y-26330D01*
X30837Y-26330D01*
X30837Y-26660D01*
X30837Y-26660D01*
G37*
G54D28*
X30837Y-26660D02*
X30106Y-27391D01*
X28894Y-27391D01*
X28887Y-27359D01*
X28887Y-27359D01*
X28830Y-27272D01*
X28830Y-27272D01*
X28062Y-26504D01*
X27975Y-26447D01*
X27904Y-26432D01*
X27904Y-26330D01*
X30837Y-26330D01*
X30837Y-26660D01*
G54D10*
G36*
X31151Y-28947D02*
X30603Y-28947D01*
X30483Y-28826D01*
X30483Y-27767D01*
X31151Y-27099D01*
X31151Y-28947D01*
X31151Y-28947D01*
G37*
G54D28*
X31151Y-28947D02*
X30603Y-28947D01*
X30483Y-28826D01*
X30483Y-27767D01*
X31151Y-27099D01*
X31151Y-28947D01*
G54D10*
G36*
X31151Y-29576D02*
X28831Y-29576D01*
X28828Y-29564D01*
X28828Y-29564D01*
X28805Y-29529D01*
X28771Y-29477D01*
X28771Y-29477D01*
X28592Y-29298D01*
X28592Y-28378D01*
X28830Y-28140D01*
X28830Y-28140D01*
X28830Y-28140D01*
X28864Y-28088D01*
X28887Y-28053D01*
X28887Y-28053D01*
X28908Y-27952D01*
X28908Y-27923D01*
X29951Y-27923D01*
X29951Y-28936D01*
X29950Y-28937D01*
X29971Y-29038D01*
X30028Y-29125D01*
X30304Y-29401D01*
X30304Y-29401D01*
X30356Y-29435D01*
X30391Y-29458D01*
X30391Y-29458D01*
X30493Y-29479D01*
X31151Y-29479D01*
X31151Y-29576D01*
X31151Y-29576D01*
G37*
G54D28*
X31151Y-29576D02*
X28831Y-29576D01*
X28828Y-29564D01*
X28828Y-29564D01*
X28805Y-29529D01*
X28771Y-29477D01*
X28771Y-29477D01*
X28592Y-29298D01*
X28592Y-28378D01*
X28830Y-28140D01*
X28830Y-28140D01*
X28830Y-28140D01*
X28864Y-28088D01*
X28887Y-28053D01*
X28887Y-28053D01*
X28908Y-27952D01*
X28908Y-27923D01*
X29951Y-27923D01*
X29951Y-28936D01*
X29950Y-28937D01*
X29971Y-29038D01*
X30028Y-29125D01*
X30304Y-29401D01*
X30304Y-29401D01*
X30356Y-29435D01*
X30391Y-29458D01*
X30391Y-29458D01*
X30493Y-29479D01*
X31151Y-29479D01*
X31151Y-29576D01*
M02*
