G04 (created by PCBNEW (2013-feb-26)-stable) date Thu 28 Mar 2013 17:55:32 GMT*
%MOIN*%
G04 Gerber Fmt 3.4, Leading zero omitted, Abs format*
%FSLAX34Y34*%
G01*
G70*
G90*
G04 APERTURE LIST*
%ADD10C,2.3622e-06*%
%ADD11R,0.0984X0.0197*%
%ADD12R,0.0984X0.0787*%
%ADD13R,0.016X0.06*%
%ADD14R,0.06X0.016*%
%ADD15R,0.1181X0.0512*%
%ADD16R,0.035X0.055*%
%ADD17R,0.055X0.035*%
%ADD18R,0.2165X0.0787*%
%ADD19R,0.0472X0.0472*%
%ADD20R,0.0591X0.0394*%
G04 APERTURE END LIST*
G54D10*
G54D11*
X20500Y-26620D03*
X20500Y-26935D03*
X20500Y-27250D03*
X20500Y-27565D03*
X20500Y-27880D03*
G54D12*
X20500Y-25498D03*
X20500Y-29002D03*
X18335Y-29002D03*
X18335Y-25498D03*
G54D13*
X29528Y-25703D03*
X29213Y-25703D03*
X28898Y-25703D03*
X28583Y-25703D03*
X28268Y-25703D03*
X27953Y-25703D03*
X29843Y-25703D03*
X30158Y-25703D03*
X30473Y-25703D03*
X30788Y-25703D03*
X31103Y-25703D03*
X29528Y-30203D03*
X29213Y-30203D03*
X28898Y-30203D03*
X28583Y-30203D03*
X28268Y-30203D03*
X27953Y-30203D03*
X29843Y-30203D03*
X30158Y-30203D03*
X30473Y-30203D03*
X30788Y-30203D03*
X31103Y-30203D03*
G54D14*
X27278Y-27953D03*
X31778Y-27953D03*
X27278Y-28268D03*
X31778Y-28268D03*
X31778Y-28583D03*
X27278Y-28583D03*
X27278Y-28898D03*
X31778Y-28898D03*
X31778Y-29213D03*
X27278Y-29213D03*
X27278Y-29528D03*
X31778Y-29528D03*
X31778Y-27638D03*
X27278Y-27638D03*
X27278Y-27323D03*
X31778Y-27323D03*
X31778Y-27008D03*
X27278Y-27008D03*
X27278Y-26693D03*
X31778Y-26693D03*
X31778Y-26378D03*
X27278Y-26378D03*
G54D15*
X19079Y-30988D03*
X21079Y-30988D03*
X19079Y-31988D03*
X21079Y-31988D03*
X19079Y-32988D03*
X21079Y-32988D03*
G54D16*
X28131Y-31299D03*
X27381Y-31299D03*
X23838Y-26773D03*
X24588Y-26773D03*
X24588Y-27560D03*
X23838Y-27560D03*
X33090Y-24606D03*
X33840Y-24606D03*
X33090Y-25295D03*
X33840Y-25295D03*
X33090Y-27362D03*
X33840Y-27362D03*
G54D17*
X22343Y-25670D03*
X22343Y-24920D03*
X35531Y-32794D03*
X35531Y-33544D03*
X28642Y-32794D03*
X28642Y-33544D03*
G54D16*
X27775Y-24606D03*
X28525Y-24606D03*
G54D17*
X32677Y-29842D03*
X32677Y-30592D03*
G54D16*
X26359Y-28150D03*
X25609Y-28150D03*
G54D17*
X31398Y-24883D03*
X31398Y-24133D03*
X27067Y-24723D03*
X27067Y-25473D03*
X28937Y-31318D03*
X28937Y-32068D03*
G54D18*
X30237Y-33169D03*
X33937Y-33169D03*
G54D19*
X35118Y-24803D03*
X35944Y-24803D03*
X35118Y-24016D03*
X35944Y-24016D03*
G54D16*
X33090Y-26673D03*
X33840Y-26673D03*
X33090Y-25984D03*
X33840Y-25984D03*
G54D20*
X34646Y-25787D03*
X34646Y-26476D03*
X34646Y-27165D03*
X36615Y-25788D03*
X36615Y-26477D03*
X36615Y-27166D03*
G54D17*
X26083Y-24723D03*
X26083Y-25473D03*
X29232Y-24588D03*
X29232Y-23838D03*
X29921Y-24588D03*
X29921Y-23838D03*
X30610Y-24588D03*
X30610Y-23838D03*
G54D16*
X34861Y-28150D03*
X35611Y-28150D03*
X33483Y-28445D03*
X34233Y-28445D03*
X34861Y-29134D03*
X35611Y-29134D03*
X33483Y-29429D03*
X34233Y-29429D03*
M02*
