M48
;DRILL file {Pcbnew (2013-feb-26)-stable} date Thu 28 Mar 2013 17:39:34 GMT
;FORMAT={-:-/ absolute / metric / decimal}
FMAT,2
METRIC,TZ
T1C0.899
T2C0.899
T3C1.016
%
G90
G05
M71
T1
X49.571Y-67.015
X49.571Y-71.415
T2
X54.75Y-70.749
X55.999Y-83.749
X58.499Y-63.251
X68.501Y-61.001
X71.501Y-70.249
X71.501Y-81.501
X72.751Y-67.749
X72.751Y-86.5
X74.75Y-73.
X77.249Y-67.749
X78.25Y-71.25
X81.001Y-77.
X81.501Y-86.5
X81.75Y-61.25
X81.999Y-81.001
X90.249Y-86.5
X90.5Y-67.501
X93.Y-61.999
T3
X95.25Y-81.28
X95.25Y-83.82
X95.25Y-86.36
T0
M30
