G04 (created by PCBNEW (2013-feb-26)-stable) date Fri 29 Mar 2013 16:55:54 GMT*
%MOIN*%
G04 Gerber Fmt 3.4, Leading zero omitted, Abs format*
%FSLAX34Y34*%
G01*
G70*
G90*
G04 APERTURE LIST*
%ADD10C,2.3622e-06*%
%ADD11C,0.0354*%
%ADD12R,0.06X0.06*%
%ADD13C,0.06*%
%ADD14C,0.0551*%
%ADD15C,0.0118*%
%ADD16C,0.01*%
G04 APERTURE END LIST*
G54D10*
G54D11*
X19516Y-26384D03*
X19516Y-28116D03*
G54D12*
X37500Y-32000D03*
G54D13*
X37500Y-33000D03*
X37500Y-34000D03*
G54D14*
X32185Y-24114D03*
X22047Y-32972D03*
X26969Y-24016D03*
X30807Y-28051D03*
X30413Y-26673D03*
X36614Y-24409D03*
X28642Y-26673D03*
X32087Y-34055D03*
X32283Y-31890D03*
X28642Y-34055D03*
X28150Y-32087D03*
X29429Y-28740D03*
X28150Y-27657D03*
X35531Y-34055D03*
X21555Y-27854D03*
X31890Y-30315D03*
X23031Y-24902D03*
X35630Y-26575D03*
G54D15*
X30413Y-27657D02*
X30807Y-28051D01*
X35531Y-34055D02*
X32087Y-34055D01*
X32087Y-32086D02*
X32283Y-31890D01*
X35531Y-34055D02*
X37445Y-34055D01*
X37445Y-34055D02*
X37500Y-34000D01*
X32087Y-34055D02*
X32087Y-32086D01*
X30413Y-26673D02*
X30413Y-27657D01*
G54D10*
G36*
X36997Y-26957D02*
X33217Y-26957D01*
X33218Y-31743D01*
X36564Y-31743D01*
X36564Y-34265D01*
X19900Y-34265D01*
X19900Y-28039D01*
X19900Y-26307D01*
X19841Y-26166D01*
X19733Y-26058D01*
X19592Y-26000D01*
X19439Y-25999D01*
X19298Y-26058D01*
X19190Y-26166D01*
X19132Y-26307D01*
X19131Y-26460D01*
X19190Y-26601D01*
X19298Y-26709D01*
X19439Y-26767D01*
X19592Y-26768D01*
X19733Y-26709D01*
X19841Y-26601D01*
X19899Y-26460D01*
X19900Y-26307D01*
X19900Y-28039D01*
X19841Y-27898D01*
X19733Y-27790D01*
X19592Y-27732D01*
X19439Y-27731D01*
X19298Y-27790D01*
X19190Y-27898D01*
X19132Y-28039D01*
X19131Y-28192D01*
X19190Y-28333D01*
X19298Y-28441D01*
X19439Y-28499D01*
X19592Y-28500D01*
X19733Y-28441D01*
X19841Y-28333D01*
X19899Y-28192D01*
X19900Y-28039D01*
X19900Y-34265D01*
X17900Y-34265D01*
X17900Y-23672D01*
X36997Y-23672D01*
X36997Y-26957D01*
X36997Y-26957D01*
G37*
G54D16*
X36997Y-26957D02*
X33217Y-26957D01*
X33218Y-31743D01*
X36564Y-31743D01*
X36564Y-34265D01*
X19900Y-34265D01*
X19900Y-28039D01*
X19900Y-26307D01*
X19841Y-26166D01*
X19733Y-26058D01*
X19592Y-26000D01*
X19439Y-25999D01*
X19298Y-26058D01*
X19190Y-26166D01*
X19132Y-26307D01*
X19131Y-26460D01*
X19190Y-26601D01*
X19298Y-26709D01*
X19439Y-26767D01*
X19592Y-26768D01*
X19733Y-26709D01*
X19841Y-26601D01*
X19899Y-26460D01*
X19900Y-26307D01*
X19900Y-28039D01*
X19841Y-27898D01*
X19733Y-27790D01*
X19592Y-27732D01*
X19439Y-27731D01*
X19298Y-27790D01*
X19190Y-27898D01*
X19132Y-28039D01*
X19131Y-28192D01*
X19190Y-28333D01*
X19298Y-28441D01*
X19439Y-28499D01*
X19592Y-28500D01*
X19733Y-28441D01*
X19841Y-28333D01*
X19899Y-28192D01*
X19900Y-28039D01*
X19900Y-34265D01*
X17900Y-34265D01*
X17900Y-23672D01*
X36997Y-23672D01*
X36997Y-26957D01*
M02*
