G04 (created by PCBNEW (2013-feb-26)-stable) date Thu 28 Mar 2013 17:55:32 GMT*
%MOIN*%
G04 Gerber Fmt 3.4, Leading zero omitted, Abs format*
%FSLAX34Y34*%
G01*
G70*
G90*
G04 APERTURE LIST*
%ADD10C,2.3622e-06*%
%ADD11C,0.012*%
%ADD12C,0.015*%
%ADD13C,0.008*%
%ADD14C,0.005*%
%ADD15C,0.0026*%
%ADD16C,0.004*%
%ADD17C,0.002*%
%ADD18C,0.006*%
%ADD19C,0.0712*%
%ADD20R,0.1184X0.0397*%
%ADD21R,0.1184X0.0987*%
%ADD22C,0.0554*%
%ADD23R,0.036X0.08*%
%ADD24R,0.08X0.036*%
%ADD25R,0.1381X0.0712*%
%ADD26R,0.055X0.075*%
%ADD27R,0.075X0.055*%
%ADD28R,0.2365X0.0987*%
%ADD29R,0.0672X0.0672*%
%ADD30C,0.6106*%
%ADD31R,0.0791X0.0594*%
%ADD32R,0.08X0.08*%
%ADD33C,0.08*%
G04 APERTURE END LIST*
G54D10*
G54D11*
X19181Y-34205D02*
X19181Y-33786D01*
X19152Y-33710D01*
X19095Y-33672D01*
X18981Y-33672D01*
X18924Y-33710D01*
X19181Y-34167D02*
X19124Y-34205D01*
X18981Y-34205D01*
X18924Y-34167D01*
X18895Y-34091D01*
X18895Y-34015D01*
X18924Y-33939D01*
X18981Y-33900D01*
X19124Y-33900D01*
X19181Y-33862D01*
X19409Y-33672D02*
X19552Y-34205D01*
X19695Y-33672D01*
X19924Y-34205D02*
X19924Y-33672D01*
X19924Y-33824D02*
X19952Y-33748D01*
X19981Y-33710D01*
X20038Y-33672D01*
X20095Y-33672D01*
X20295Y-33900D02*
X20752Y-33900D01*
X21295Y-34167D02*
X21238Y-34205D01*
X21124Y-34205D01*
X21066Y-34167D01*
X21038Y-34129D01*
X21009Y-34053D01*
X21009Y-33824D01*
X21038Y-33748D01*
X21066Y-33710D01*
X21124Y-33672D01*
X21238Y-33672D01*
X21295Y-33710D01*
X21809Y-34205D02*
X21809Y-33786D01*
X21781Y-33710D01*
X21724Y-33672D01*
X21609Y-33672D01*
X21552Y-33710D01*
X21809Y-34167D02*
X21752Y-34205D01*
X21609Y-34205D01*
X21552Y-34167D01*
X21524Y-34091D01*
X21524Y-34015D01*
X21552Y-33939D01*
X21609Y-33900D01*
X21752Y-33900D01*
X21809Y-33862D01*
X22095Y-33672D02*
X22095Y-34472D01*
X22095Y-33710D02*
X22152Y-33672D01*
X22266Y-33672D01*
X22324Y-33710D01*
X22352Y-33748D01*
X22381Y-33824D01*
X22381Y-34053D01*
X22352Y-34129D01*
X22324Y-34167D01*
X22266Y-34205D01*
X22152Y-34205D01*
X22095Y-34167D01*
X22552Y-33672D02*
X22781Y-33672D01*
X22638Y-33405D02*
X22638Y-34091D01*
X22666Y-34167D01*
X22724Y-34205D01*
X22781Y-34205D01*
X23066Y-34205D02*
X23009Y-34167D01*
X22981Y-34129D01*
X22952Y-34053D01*
X22952Y-33824D01*
X22981Y-33748D01*
X23009Y-33710D01*
X23066Y-33672D01*
X23152Y-33672D01*
X23209Y-33710D01*
X23238Y-33748D01*
X23266Y-33824D01*
X23266Y-34053D01*
X23238Y-34129D01*
X23209Y-34167D01*
X23152Y-34205D01*
X23066Y-34205D01*
X23781Y-33672D02*
X23781Y-34205D01*
X23524Y-33672D02*
X23524Y-34091D01*
X23552Y-34167D01*
X23609Y-34205D01*
X23695Y-34205D01*
X23752Y-34167D01*
X23781Y-34129D01*
X24324Y-34167D02*
X24266Y-34205D01*
X24152Y-34205D01*
X24095Y-34167D01*
X24066Y-34129D01*
X24038Y-34053D01*
X24038Y-33824D01*
X24066Y-33748D01*
X24095Y-33710D01*
X24152Y-33672D01*
X24266Y-33672D01*
X24324Y-33710D01*
X24581Y-34205D02*
X24581Y-33405D01*
X24838Y-34205D02*
X24838Y-33786D01*
X24809Y-33710D01*
X24752Y-33672D01*
X24666Y-33672D01*
X24609Y-33710D01*
X24581Y-33748D01*
X25581Y-34205D02*
X25581Y-33672D01*
X25581Y-33824D02*
X25609Y-33748D01*
X25638Y-33710D01*
X25695Y-33672D01*
X25752Y-33672D01*
X26181Y-34167D02*
X26124Y-34205D01*
X26009Y-34205D01*
X25952Y-34167D01*
X25924Y-34091D01*
X25924Y-33786D01*
X25952Y-33710D01*
X26009Y-33672D01*
X26124Y-33672D01*
X26181Y-33710D01*
X26209Y-33786D01*
X26209Y-33862D01*
X25924Y-33939D01*
X26409Y-33672D02*
X26552Y-34205D01*
X26695Y-33672D01*
X26895Y-33481D02*
X26924Y-33443D01*
X26981Y-33405D01*
X27124Y-33405D01*
X27181Y-33443D01*
X27209Y-33481D01*
X27238Y-33558D01*
X27238Y-33634D01*
X27209Y-33748D01*
X26866Y-34205D01*
X27238Y-34205D01*
G54D12*
X17665Y-26856D02*
X18728Y-26915D01*
X18728Y-26915D02*
X18728Y-27585D01*
X18728Y-27585D02*
X17665Y-27644D01*
X20992Y-25734D02*
X20992Y-28766D01*
X20992Y-28766D02*
X17370Y-28766D01*
X17370Y-28766D02*
X17370Y-25734D01*
X17370Y-25734D02*
X20992Y-25734D01*
G54D11*
X31498Y-25983D02*
X31498Y-29923D01*
X31498Y-29923D02*
X27558Y-29923D01*
X27558Y-26173D02*
X27558Y-29923D01*
X27748Y-25983D02*
X31498Y-25983D01*
X27558Y-26173D02*
X27748Y-25983D01*
G54D13*
X28278Y-26453D02*
G75*
G03X28278Y-26453I-250J0D01*
G74*
G01*
G54D12*
X21829Y-29488D02*
X21829Y-34488D01*
X21829Y-34488D02*
X18329Y-34488D01*
X18329Y-34488D02*
X18329Y-32738D01*
X18329Y-32738D02*
X17829Y-32738D01*
X17829Y-32738D02*
X17829Y-31488D01*
X17829Y-31488D02*
X17829Y-31238D01*
X17829Y-31238D02*
X18329Y-31238D01*
X18329Y-31238D02*
X18329Y-29488D01*
X18329Y-29488D02*
X21829Y-29488D01*
G54D14*
X28456Y-30999D02*
G75*
G03X28456Y-30999I-50J0D01*
G74*
G01*
X27956Y-30999D02*
X28356Y-30999D01*
X28356Y-30999D02*
X28356Y-31599D01*
X28356Y-31599D02*
X27956Y-31599D01*
X27556Y-31599D02*
X27156Y-31599D01*
X27156Y-31599D02*
X27156Y-30999D01*
X27156Y-30999D02*
X27556Y-30999D01*
X23613Y-27073D02*
G75*
G03X23613Y-27073I-50J0D01*
G74*
G01*
X24013Y-27073D02*
X23613Y-27073D01*
X23613Y-27073D02*
X23613Y-26473D01*
X23613Y-26473D02*
X24013Y-26473D01*
X24413Y-26473D02*
X24813Y-26473D01*
X24813Y-26473D02*
X24813Y-27073D01*
X24813Y-27073D02*
X24413Y-27073D01*
X24913Y-27260D02*
G75*
G03X24913Y-27260I-50J0D01*
G74*
G01*
X24413Y-27260D02*
X24813Y-27260D01*
X24813Y-27260D02*
X24813Y-27860D01*
X24813Y-27860D02*
X24413Y-27860D01*
X24013Y-27860D02*
X23613Y-27860D01*
X23613Y-27860D02*
X23613Y-27260D01*
X23613Y-27260D02*
X24013Y-27260D01*
X32865Y-24906D02*
G75*
G03X32865Y-24906I-50J0D01*
G74*
G01*
X33265Y-24906D02*
X32865Y-24906D01*
X32865Y-24906D02*
X32865Y-24306D01*
X32865Y-24306D02*
X33265Y-24306D01*
X33665Y-24306D02*
X34065Y-24306D01*
X34065Y-24306D02*
X34065Y-24906D01*
X34065Y-24906D02*
X33665Y-24906D01*
X32865Y-25595D02*
G75*
G03X32865Y-25595I-50J0D01*
G74*
G01*
X33265Y-25595D02*
X32865Y-25595D01*
X32865Y-25595D02*
X32865Y-24995D01*
X32865Y-24995D02*
X33265Y-24995D01*
X33665Y-24995D02*
X34065Y-24995D01*
X34065Y-24995D02*
X34065Y-25595D01*
X34065Y-25595D02*
X33665Y-25595D01*
X32865Y-27662D02*
G75*
G03X32865Y-27662I-50J0D01*
G74*
G01*
X33265Y-27662D02*
X32865Y-27662D01*
X32865Y-27662D02*
X32865Y-27062D01*
X32865Y-27062D02*
X33265Y-27062D01*
X33665Y-27062D02*
X34065Y-27062D01*
X34065Y-27062D02*
X34065Y-27662D01*
X34065Y-27662D02*
X33665Y-27662D01*
X22693Y-25945D02*
G75*
G03X22693Y-25945I-50J0D01*
G74*
G01*
X22643Y-25495D02*
X22643Y-25895D01*
X22643Y-25895D02*
X22043Y-25895D01*
X22043Y-25895D02*
X22043Y-25495D01*
X22043Y-25095D02*
X22043Y-24695D01*
X22043Y-24695D02*
X22643Y-24695D01*
X22643Y-24695D02*
X22643Y-25095D01*
X35281Y-32519D02*
G75*
G03X35281Y-32519I-50J0D01*
G74*
G01*
X35231Y-32969D02*
X35231Y-32569D01*
X35231Y-32569D02*
X35831Y-32569D01*
X35831Y-32569D02*
X35831Y-32969D01*
X35831Y-33369D02*
X35831Y-33769D01*
X35831Y-33769D02*
X35231Y-33769D01*
X35231Y-33769D02*
X35231Y-33369D01*
X28392Y-32519D02*
G75*
G03X28392Y-32519I-50J0D01*
G74*
G01*
X28342Y-32969D02*
X28342Y-32569D01*
X28342Y-32569D02*
X28942Y-32569D01*
X28942Y-32569D02*
X28942Y-32969D01*
X28942Y-33369D02*
X28942Y-33769D01*
X28942Y-33769D02*
X28342Y-33769D01*
X28342Y-33769D02*
X28342Y-33369D01*
X27550Y-24906D02*
G75*
G03X27550Y-24906I-50J0D01*
G74*
G01*
X27950Y-24906D02*
X27550Y-24906D01*
X27550Y-24906D02*
X27550Y-24306D01*
X27550Y-24306D02*
X27950Y-24306D01*
X28350Y-24306D02*
X28750Y-24306D01*
X28750Y-24306D02*
X28750Y-24906D01*
X28750Y-24906D02*
X28350Y-24906D01*
X32427Y-29567D02*
G75*
G03X32427Y-29567I-50J0D01*
G74*
G01*
X32377Y-30017D02*
X32377Y-29617D01*
X32377Y-29617D02*
X32977Y-29617D01*
X32977Y-29617D02*
X32977Y-30017D01*
X32977Y-30417D02*
X32977Y-30817D01*
X32977Y-30817D02*
X32377Y-30817D01*
X32377Y-30817D02*
X32377Y-30417D01*
X26684Y-27850D02*
G75*
G03X26684Y-27850I-50J0D01*
G74*
G01*
X26184Y-27850D02*
X26584Y-27850D01*
X26584Y-27850D02*
X26584Y-28450D01*
X26584Y-28450D02*
X26184Y-28450D01*
X25784Y-28450D02*
X25384Y-28450D01*
X25384Y-28450D02*
X25384Y-27850D01*
X25384Y-27850D02*
X25784Y-27850D01*
X31748Y-25158D02*
G75*
G03X31748Y-25158I-50J0D01*
G74*
G01*
X31698Y-24708D02*
X31698Y-25108D01*
X31698Y-25108D02*
X31098Y-25108D01*
X31098Y-25108D02*
X31098Y-24708D01*
X31098Y-24308D02*
X31098Y-23908D01*
X31098Y-23908D02*
X31698Y-23908D01*
X31698Y-23908D02*
X31698Y-24308D01*
X26817Y-24448D02*
G75*
G03X26817Y-24448I-50J0D01*
G74*
G01*
X26767Y-24898D02*
X26767Y-24498D01*
X26767Y-24498D02*
X27367Y-24498D01*
X27367Y-24498D02*
X27367Y-24898D01*
X27367Y-25298D02*
X27367Y-25698D01*
X27367Y-25698D02*
X26767Y-25698D01*
X26767Y-25698D02*
X26767Y-25298D01*
X28687Y-31043D02*
G75*
G03X28687Y-31043I-50J0D01*
G74*
G01*
X28637Y-31493D02*
X28637Y-31093D01*
X28637Y-31093D02*
X29237Y-31093D01*
X29237Y-31093D02*
X29237Y-31493D01*
X29237Y-31893D02*
X29237Y-32293D01*
X29237Y-32293D02*
X28637Y-32293D01*
X28637Y-32293D02*
X28637Y-31893D01*
G54D13*
X30137Y-32519D02*
X30137Y-32669D01*
X30137Y-33819D02*
X30137Y-33669D01*
X34037Y-33819D02*
X34037Y-33669D01*
X34037Y-32519D02*
X34037Y-32669D01*
X34337Y-32169D02*
X34337Y-32669D01*
X34337Y-34169D02*
X34337Y-33669D01*
X29837Y-34169D02*
X29837Y-33669D01*
X29837Y-32169D02*
X29837Y-32669D01*
X30137Y-33819D02*
X30387Y-34069D01*
X30387Y-34069D02*
X33787Y-34069D01*
X33787Y-34069D02*
X34037Y-33819D01*
X34037Y-32519D02*
X33787Y-32269D01*
X33787Y-32269D02*
X30387Y-32269D01*
X30387Y-32269D02*
X30137Y-32519D01*
X34337Y-34169D02*
X29837Y-34169D01*
X29837Y-32169D02*
X34337Y-32169D01*
G54D15*
X35727Y-24921D02*
X35727Y-25049D01*
X35727Y-25049D02*
X35924Y-25049D01*
X35924Y-24921D02*
X35924Y-25049D01*
X35727Y-24921D02*
X35924Y-24921D01*
X35727Y-24676D02*
X35727Y-24735D01*
X35727Y-24735D02*
X35826Y-24735D01*
X35826Y-24676D02*
X35826Y-24735D01*
X35727Y-24676D02*
X35826Y-24676D01*
X35727Y-24871D02*
X35727Y-24930D01*
X35727Y-24930D02*
X35826Y-24930D01*
X35826Y-24871D02*
X35826Y-24930D01*
X35727Y-24871D02*
X35826Y-24871D01*
X35727Y-24725D02*
X35727Y-24881D01*
X35727Y-24881D02*
X35796Y-24881D01*
X35796Y-24725D02*
X35796Y-24881D01*
X35727Y-24725D02*
X35796Y-24725D01*
X35138Y-24921D02*
X35138Y-25049D01*
X35138Y-25049D02*
X35335Y-25049D01*
X35335Y-24921D02*
X35335Y-25049D01*
X35138Y-24921D02*
X35335Y-24921D01*
X35138Y-24557D02*
X35138Y-24685D01*
X35138Y-24685D02*
X35335Y-24685D01*
X35335Y-24557D02*
X35335Y-24685D01*
X35138Y-24557D02*
X35335Y-24557D01*
X35236Y-24871D02*
X35236Y-24930D01*
X35236Y-24930D02*
X35335Y-24930D01*
X35335Y-24871D02*
X35335Y-24930D01*
X35236Y-24871D02*
X35335Y-24871D01*
X35236Y-24676D02*
X35236Y-24735D01*
X35236Y-24735D02*
X35335Y-24735D01*
X35335Y-24676D02*
X35335Y-24735D01*
X35236Y-24676D02*
X35335Y-24676D01*
X35266Y-24725D02*
X35266Y-24881D01*
X35266Y-24881D02*
X35335Y-24881D01*
X35335Y-24725D02*
X35335Y-24881D01*
X35266Y-24725D02*
X35335Y-24725D01*
X35531Y-24764D02*
X35531Y-24842D01*
X35531Y-24842D02*
X35609Y-24842D01*
X35609Y-24764D02*
X35609Y-24842D01*
X35531Y-24764D02*
X35609Y-24764D01*
X35727Y-24567D02*
X35727Y-24685D01*
X35727Y-24685D02*
X35845Y-24685D01*
X35845Y-24567D02*
X35845Y-24685D01*
X35727Y-24567D02*
X35845Y-24567D01*
X35895Y-24557D02*
X35895Y-24646D01*
X35895Y-24646D02*
X35924Y-24646D01*
X35924Y-24557D02*
X35924Y-24646D01*
X35895Y-24557D02*
X35924Y-24557D01*
G54D16*
X35737Y-25029D02*
X35325Y-25029D01*
X35335Y-24577D02*
X35895Y-24577D01*
G54D17*
X35893Y-24626D02*
G75*
G03X35893Y-24626I-28J0D01*
G74*
G01*
G54D16*
X35924Y-24666D02*
G75*
G03X35924Y-24940I0J-137D01*
G74*
G01*
X35138Y-24940D02*
G75*
G03X35138Y-24666I0J137D01*
G74*
G01*
G54D15*
X35727Y-24134D02*
X35727Y-24262D01*
X35727Y-24262D02*
X35924Y-24262D01*
X35924Y-24134D02*
X35924Y-24262D01*
X35727Y-24134D02*
X35924Y-24134D01*
X35727Y-23889D02*
X35727Y-23948D01*
X35727Y-23948D02*
X35826Y-23948D01*
X35826Y-23889D02*
X35826Y-23948D01*
X35727Y-23889D02*
X35826Y-23889D01*
X35727Y-24084D02*
X35727Y-24143D01*
X35727Y-24143D02*
X35826Y-24143D01*
X35826Y-24084D02*
X35826Y-24143D01*
X35727Y-24084D02*
X35826Y-24084D01*
X35727Y-23938D02*
X35727Y-24094D01*
X35727Y-24094D02*
X35796Y-24094D01*
X35796Y-23938D02*
X35796Y-24094D01*
X35727Y-23938D02*
X35796Y-23938D01*
X35138Y-24134D02*
X35138Y-24262D01*
X35138Y-24262D02*
X35335Y-24262D01*
X35335Y-24134D02*
X35335Y-24262D01*
X35138Y-24134D02*
X35335Y-24134D01*
X35138Y-23770D02*
X35138Y-23898D01*
X35138Y-23898D02*
X35335Y-23898D01*
X35335Y-23770D02*
X35335Y-23898D01*
X35138Y-23770D02*
X35335Y-23770D01*
X35236Y-24084D02*
X35236Y-24143D01*
X35236Y-24143D02*
X35335Y-24143D01*
X35335Y-24084D02*
X35335Y-24143D01*
X35236Y-24084D02*
X35335Y-24084D01*
X35236Y-23889D02*
X35236Y-23948D01*
X35236Y-23948D02*
X35335Y-23948D01*
X35335Y-23889D02*
X35335Y-23948D01*
X35236Y-23889D02*
X35335Y-23889D01*
X35266Y-23938D02*
X35266Y-24094D01*
X35266Y-24094D02*
X35335Y-24094D01*
X35335Y-23938D02*
X35335Y-24094D01*
X35266Y-23938D02*
X35335Y-23938D01*
X35531Y-23977D02*
X35531Y-24055D01*
X35531Y-24055D02*
X35609Y-24055D01*
X35609Y-23977D02*
X35609Y-24055D01*
X35531Y-23977D02*
X35609Y-23977D01*
X35727Y-23780D02*
X35727Y-23898D01*
X35727Y-23898D02*
X35845Y-23898D01*
X35845Y-23780D02*
X35845Y-23898D01*
X35727Y-23780D02*
X35845Y-23780D01*
X35895Y-23770D02*
X35895Y-23859D01*
X35895Y-23859D02*
X35924Y-23859D01*
X35924Y-23770D02*
X35924Y-23859D01*
X35895Y-23770D02*
X35924Y-23770D01*
G54D16*
X35737Y-24242D02*
X35325Y-24242D01*
X35335Y-23790D02*
X35895Y-23790D01*
G54D17*
X35893Y-23839D02*
G75*
G03X35893Y-23839I-28J0D01*
G74*
G01*
G54D16*
X35924Y-23879D02*
G75*
G03X35924Y-24153I0J-137D01*
G74*
G01*
X35138Y-24153D02*
G75*
G03X35138Y-23879I0J137D01*
G74*
G01*
G54D14*
X32865Y-26973D02*
G75*
G03X32865Y-26973I-50J0D01*
G74*
G01*
X33265Y-26973D02*
X32865Y-26973D01*
X32865Y-26973D02*
X32865Y-26373D01*
X32865Y-26373D02*
X33265Y-26373D01*
X33665Y-26373D02*
X34065Y-26373D01*
X34065Y-26373D02*
X34065Y-26973D01*
X34065Y-26973D02*
X33665Y-26973D01*
X32865Y-26284D02*
G75*
G03X32865Y-26284I-50J0D01*
G74*
G01*
X33265Y-26284D02*
X32865Y-26284D01*
X32865Y-26284D02*
X32865Y-25684D01*
X32865Y-25684D02*
X33265Y-25684D01*
X33665Y-25684D02*
X34065Y-25684D01*
X34065Y-25684D02*
X34065Y-26284D01*
X34065Y-26284D02*
X33665Y-26284D01*
G54D12*
X34646Y-26132D02*
X35039Y-26132D01*
X35039Y-26132D02*
X35374Y-25797D01*
X35374Y-25797D02*
X35374Y-25492D01*
X36614Y-25492D02*
X36614Y-27460D01*
X36614Y-27460D02*
X34646Y-27460D01*
X34646Y-27460D02*
X34646Y-25492D01*
X34646Y-25492D02*
X36614Y-25492D01*
G54D14*
X25833Y-24448D02*
G75*
G03X25833Y-24448I-50J0D01*
G74*
G01*
X25783Y-24898D02*
X25783Y-24498D01*
X25783Y-24498D02*
X26383Y-24498D01*
X26383Y-24498D02*
X26383Y-24898D01*
X26383Y-25298D02*
X26383Y-25698D01*
X26383Y-25698D02*
X25783Y-25698D01*
X25783Y-25698D02*
X25783Y-25298D01*
X29582Y-24863D02*
G75*
G03X29582Y-24863I-50J0D01*
G74*
G01*
X29532Y-24413D02*
X29532Y-24813D01*
X29532Y-24813D02*
X28932Y-24813D01*
X28932Y-24813D02*
X28932Y-24413D01*
X28932Y-24013D02*
X28932Y-23613D01*
X28932Y-23613D02*
X29532Y-23613D01*
X29532Y-23613D02*
X29532Y-24013D01*
X30271Y-24863D02*
G75*
G03X30271Y-24863I-50J0D01*
G74*
G01*
X30221Y-24413D02*
X30221Y-24813D01*
X30221Y-24813D02*
X29621Y-24813D01*
X29621Y-24813D02*
X29621Y-24413D01*
X29621Y-24013D02*
X29621Y-23613D01*
X29621Y-23613D02*
X30221Y-23613D01*
X30221Y-23613D02*
X30221Y-24013D01*
X30960Y-24863D02*
G75*
G03X30960Y-24863I-50J0D01*
G74*
G01*
X30910Y-24413D02*
X30910Y-24813D01*
X30910Y-24813D02*
X30310Y-24813D01*
X30310Y-24813D02*
X30310Y-24413D01*
X30310Y-24013D02*
X30310Y-23613D01*
X30310Y-23613D02*
X30910Y-23613D01*
X30910Y-23613D02*
X30910Y-24013D01*
X34636Y-28450D02*
G75*
G03X34636Y-28450I-50J0D01*
G74*
G01*
X35036Y-28450D02*
X34636Y-28450D01*
X34636Y-28450D02*
X34636Y-27850D01*
X34636Y-27850D02*
X35036Y-27850D01*
X35436Y-27850D02*
X35836Y-27850D01*
X35836Y-27850D02*
X35836Y-28450D01*
X35836Y-28450D02*
X35436Y-28450D01*
X33258Y-28745D02*
G75*
G03X33258Y-28745I-50J0D01*
G74*
G01*
X33658Y-28745D02*
X33258Y-28745D01*
X33258Y-28745D02*
X33258Y-28145D01*
X33258Y-28145D02*
X33658Y-28145D01*
X34058Y-28145D02*
X34458Y-28145D01*
X34458Y-28145D02*
X34458Y-28745D01*
X34458Y-28745D02*
X34058Y-28745D01*
X34636Y-29434D02*
G75*
G03X34636Y-29434I-50J0D01*
G74*
G01*
X35036Y-29434D02*
X34636Y-29434D01*
X34636Y-29434D02*
X34636Y-28834D01*
X34636Y-28834D02*
X35036Y-28834D01*
X35436Y-28834D02*
X35836Y-28834D01*
X35836Y-28834D02*
X35836Y-29434D01*
X35836Y-29434D02*
X35436Y-29434D01*
X33258Y-29729D02*
G75*
G03X33258Y-29729I-50J0D01*
G74*
G01*
X33658Y-29729D02*
X33258Y-29729D01*
X33258Y-29729D02*
X33258Y-29129D01*
X33258Y-29129D02*
X33658Y-29129D01*
X34058Y-29129D02*
X34458Y-29129D01*
X34458Y-29129D02*
X34458Y-29729D01*
X34458Y-29729D02*
X34058Y-29729D01*
G54D18*
X37000Y-31500D02*
X38000Y-31500D01*
X38000Y-31500D02*
X38000Y-34500D01*
X38000Y-34500D02*
X37000Y-34500D01*
X37000Y-34500D02*
X37000Y-31500D01*
X38000Y-32500D02*
X37000Y-32500D01*
%LPC*%
G54D19*
X40945Y-19685D03*
G54D20*
X20500Y-26620D03*
X20500Y-26935D03*
X20500Y-27250D03*
X20500Y-27565D03*
X20500Y-27880D03*
G54D21*
X20500Y-25498D03*
X20500Y-29002D03*
X18335Y-29002D03*
X18335Y-25498D03*
G54D22*
X19516Y-26384D03*
X19516Y-28116D03*
G54D23*
X29528Y-25703D03*
X29213Y-25703D03*
X28898Y-25703D03*
X28583Y-25703D03*
X28268Y-25703D03*
X27953Y-25703D03*
X29843Y-25703D03*
X30158Y-25703D03*
X30473Y-25703D03*
X30788Y-25703D03*
X31103Y-25703D03*
X29528Y-30203D03*
X29213Y-30203D03*
X28898Y-30203D03*
X28583Y-30203D03*
X28268Y-30203D03*
X27953Y-30203D03*
X29843Y-30203D03*
X30158Y-30203D03*
X30473Y-30203D03*
X30788Y-30203D03*
X31103Y-30203D03*
G54D24*
X27278Y-27953D03*
X31778Y-27953D03*
X27278Y-28268D03*
X31778Y-28268D03*
X31778Y-28583D03*
X27278Y-28583D03*
X27278Y-28898D03*
X31778Y-28898D03*
X31778Y-29213D03*
X27278Y-29213D03*
X27278Y-29528D03*
X31778Y-29528D03*
X31778Y-27638D03*
X27278Y-27638D03*
X27278Y-27323D03*
X31778Y-27323D03*
X31778Y-27008D03*
X27278Y-27008D03*
X27278Y-26693D03*
X31778Y-26693D03*
X31778Y-26378D03*
X27278Y-26378D03*
G54D25*
X19079Y-30988D03*
X21079Y-30988D03*
X19079Y-31988D03*
X21079Y-31988D03*
X19079Y-32988D03*
X21079Y-32988D03*
G54D26*
X28131Y-31299D03*
X27381Y-31299D03*
X23838Y-26773D03*
X24588Y-26773D03*
X24588Y-27560D03*
X23838Y-27560D03*
X33090Y-24606D03*
X33840Y-24606D03*
X33090Y-25295D03*
X33840Y-25295D03*
X33090Y-27362D03*
X33840Y-27362D03*
G54D27*
X22343Y-25670D03*
X22343Y-24920D03*
X35531Y-32794D03*
X35531Y-33544D03*
X28642Y-32794D03*
X28642Y-33544D03*
G54D26*
X27775Y-24606D03*
X28525Y-24606D03*
G54D27*
X32677Y-29842D03*
X32677Y-30592D03*
G54D26*
X26359Y-28150D03*
X25609Y-28150D03*
G54D27*
X31398Y-24883D03*
X31398Y-24133D03*
X27067Y-24723D03*
X27067Y-25473D03*
X28937Y-31318D03*
X28937Y-32068D03*
G54D28*
X30237Y-33169D03*
X33937Y-33169D03*
G54D29*
X35118Y-24803D03*
X35944Y-24803D03*
X35118Y-24016D03*
X35944Y-24016D03*
G54D30*
X34252Y-19685D03*
X27559Y-19685D03*
X20866Y-19685D03*
G54D19*
X40945Y-31496D03*
X40945Y-27559D03*
X40945Y-23622D03*
G54D26*
X33090Y-26673D03*
X33840Y-26673D03*
X33090Y-25984D03*
X33840Y-25984D03*
G54D31*
X34646Y-25787D03*
X34646Y-26476D03*
X34646Y-27165D03*
X36615Y-25788D03*
X36615Y-26477D03*
X36615Y-27166D03*
G54D27*
X26083Y-24723D03*
X26083Y-25473D03*
X29232Y-24588D03*
X29232Y-23838D03*
X29921Y-24588D03*
X29921Y-23838D03*
X30610Y-24588D03*
X30610Y-23838D03*
G54D26*
X34861Y-28150D03*
X35611Y-28150D03*
X33483Y-28445D03*
X34233Y-28445D03*
X34861Y-29134D03*
X35611Y-29134D03*
X33483Y-29429D03*
X34233Y-29429D03*
G54D32*
X37500Y-32000D03*
G54D33*
X37500Y-33000D03*
X37500Y-34000D03*
M02*
