G04 (created by PCBNEW (2013-feb-26)-stable) date Thu 28 Mar 2013 17:39:21 GMT*
%MOIN*%
G04 Gerber Fmt 3.4, Leading zero omitted, Abs format*
%FSLAX34Y34*%
G01*
G70*
G90*
G04 APERTURE LIST*
%ADD10C,2.3622e-06*%
%ADD11C,0.012*%
%ADD12C,0.015*%
%ADD13C,0.008*%
%ADD14C,0.005*%
%ADD15C,0.0026*%
%ADD16C,0.004*%
%ADD17C,0.002*%
%ADD18C,0.006*%
%ADD19C,0.007375*%
%ADD20C,0.0074*%
%ADD21R,0.1184X0.0397*%
%ADD22R,0.1184X0.0987*%
%ADD23C,0.0554*%
%ADD24R,0.036X0.08*%
%ADD25R,0.08X0.036*%
%ADD26R,0.1381X0.0712*%
%ADD27R,0.055X0.075*%
%ADD28R,0.075X0.055*%
%ADD29R,0.2365X0.0987*%
%ADD30R,0.0672X0.0672*%
%ADD31C,0.6106*%
%ADD32C,0.0712*%
%ADD33R,0.0791X0.0594*%
%ADD34R,0.08X0.08*%
%ADD35C,0.08*%
G04 APERTURE END LIST*
G54D10*
G54D11*
X19181Y-34205D02*
X19181Y-33786D01*
X19152Y-33710D01*
X19095Y-33672D01*
X18981Y-33672D01*
X18924Y-33710D01*
X19181Y-34167D02*
X19124Y-34205D01*
X18981Y-34205D01*
X18924Y-34167D01*
X18895Y-34091D01*
X18895Y-34015D01*
X18924Y-33939D01*
X18981Y-33900D01*
X19124Y-33900D01*
X19181Y-33862D01*
X19409Y-33672D02*
X19552Y-34205D01*
X19695Y-33672D01*
X19924Y-34205D02*
X19924Y-33672D01*
X19924Y-33824D02*
X19952Y-33748D01*
X19981Y-33710D01*
X20038Y-33672D01*
X20095Y-33672D01*
X20295Y-33900D02*
X20752Y-33900D01*
X21295Y-34167D02*
X21238Y-34205D01*
X21124Y-34205D01*
X21066Y-34167D01*
X21038Y-34129D01*
X21009Y-34053D01*
X21009Y-33824D01*
X21038Y-33748D01*
X21066Y-33710D01*
X21124Y-33672D01*
X21238Y-33672D01*
X21295Y-33710D01*
X21809Y-34205D02*
X21809Y-33786D01*
X21781Y-33710D01*
X21724Y-33672D01*
X21609Y-33672D01*
X21552Y-33710D01*
X21809Y-34167D02*
X21752Y-34205D01*
X21609Y-34205D01*
X21552Y-34167D01*
X21524Y-34091D01*
X21524Y-34015D01*
X21552Y-33939D01*
X21609Y-33900D01*
X21752Y-33900D01*
X21809Y-33862D01*
X22095Y-33672D02*
X22095Y-34472D01*
X22095Y-33710D02*
X22152Y-33672D01*
X22266Y-33672D01*
X22324Y-33710D01*
X22352Y-33748D01*
X22381Y-33824D01*
X22381Y-34053D01*
X22352Y-34129D01*
X22324Y-34167D01*
X22266Y-34205D01*
X22152Y-34205D01*
X22095Y-34167D01*
X22552Y-33672D02*
X22781Y-33672D01*
X22638Y-33405D02*
X22638Y-34091D01*
X22666Y-34167D01*
X22724Y-34205D01*
X22781Y-34205D01*
X23066Y-34205D02*
X23009Y-34167D01*
X22981Y-34129D01*
X22952Y-34053D01*
X22952Y-33824D01*
X22981Y-33748D01*
X23009Y-33710D01*
X23066Y-33672D01*
X23152Y-33672D01*
X23209Y-33710D01*
X23238Y-33748D01*
X23266Y-33824D01*
X23266Y-34053D01*
X23238Y-34129D01*
X23209Y-34167D01*
X23152Y-34205D01*
X23066Y-34205D01*
X23781Y-33672D02*
X23781Y-34205D01*
X23524Y-33672D02*
X23524Y-34091D01*
X23552Y-34167D01*
X23609Y-34205D01*
X23695Y-34205D01*
X23752Y-34167D01*
X23781Y-34129D01*
X24324Y-34167D02*
X24266Y-34205D01*
X24152Y-34205D01*
X24095Y-34167D01*
X24066Y-34129D01*
X24038Y-34053D01*
X24038Y-33824D01*
X24066Y-33748D01*
X24095Y-33710D01*
X24152Y-33672D01*
X24266Y-33672D01*
X24324Y-33710D01*
X24581Y-34205D02*
X24581Y-33405D01*
X24838Y-34205D02*
X24838Y-33786D01*
X24809Y-33710D01*
X24752Y-33672D01*
X24666Y-33672D01*
X24609Y-33710D01*
X24581Y-33748D01*
X25581Y-34205D02*
X25581Y-33672D01*
X25581Y-33824D02*
X25609Y-33748D01*
X25638Y-33710D01*
X25695Y-33672D01*
X25752Y-33672D01*
X26181Y-34167D02*
X26124Y-34205D01*
X26009Y-34205D01*
X25952Y-34167D01*
X25924Y-34091D01*
X25924Y-33786D01*
X25952Y-33710D01*
X26009Y-33672D01*
X26124Y-33672D01*
X26181Y-33710D01*
X26209Y-33786D01*
X26209Y-33862D01*
X25924Y-33939D01*
X26409Y-33672D02*
X26552Y-34205D01*
X26695Y-33672D01*
X26895Y-33481D02*
X26924Y-33443D01*
X26981Y-33405D01*
X27124Y-33405D01*
X27181Y-33443D01*
X27209Y-33481D01*
X27238Y-33558D01*
X27238Y-33634D01*
X27209Y-33748D01*
X26866Y-34205D01*
X27238Y-34205D01*
G54D12*
X17665Y-26856D02*
X18728Y-26915D01*
X18728Y-26915D02*
X18728Y-27585D01*
X18728Y-27585D02*
X17665Y-27644D01*
X20992Y-25734D02*
X20992Y-28766D01*
X20992Y-28766D02*
X17370Y-28766D01*
X17370Y-28766D02*
X17370Y-25734D01*
X17370Y-25734D02*
X20992Y-25734D01*
G54D11*
X31498Y-25983D02*
X31498Y-29923D01*
X31498Y-29923D02*
X27558Y-29923D01*
X27558Y-26173D02*
X27558Y-29923D01*
X27748Y-25983D02*
X31498Y-25983D01*
X27558Y-26173D02*
X27748Y-25983D01*
G54D13*
X28278Y-26453D02*
G75*
G03X28278Y-26453I-250J0D01*
G74*
G01*
G54D12*
X21829Y-29488D02*
X21829Y-34488D01*
X21829Y-34488D02*
X18329Y-34488D01*
X18329Y-34488D02*
X18329Y-32738D01*
X18329Y-32738D02*
X17829Y-32738D01*
X17829Y-32738D02*
X17829Y-31488D01*
X17829Y-31488D02*
X17829Y-31238D01*
X17829Y-31238D02*
X18329Y-31238D01*
X18329Y-31238D02*
X18329Y-29488D01*
X18329Y-29488D02*
X21829Y-29488D01*
G54D14*
X28456Y-30999D02*
G75*
G03X28456Y-30999I-50J0D01*
G74*
G01*
X27956Y-30999D02*
X28356Y-30999D01*
X28356Y-30999D02*
X28356Y-31599D01*
X28356Y-31599D02*
X27956Y-31599D01*
X27556Y-31599D02*
X27156Y-31599D01*
X27156Y-31599D02*
X27156Y-30999D01*
X27156Y-30999D02*
X27556Y-30999D01*
X23613Y-27073D02*
G75*
G03X23613Y-27073I-50J0D01*
G74*
G01*
X24013Y-27073D02*
X23613Y-27073D01*
X23613Y-27073D02*
X23613Y-26473D01*
X23613Y-26473D02*
X24013Y-26473D01*
X24413Y-26473D02*
X24813Y-26473D01*
X24813Y-26473D02*
X24813Y-27073D01*
X24813Y-27073D02*
X24413Y-27073D01*
X24913Y-27260D02*
G75*
G03X24913Y-27260I-50J0D01*
G74*
G01*
X24413Y-27260D02*
X24813Y-27260D01*
X24813Y-27260D02*
X24813Y-27860D01*
X24813Y-27860D02*
X24413Y-27860D01*
X24013Y-27860D02*
X23613Y-27860D01*
X23613Y-27860D02*
X23613Y-27260D01*
X23613Y-27260D02*
X24013Y-27260D01*
X32865Y-24906D02*
G75*
G03X32865Y-24906I-50J0D01*
G74*
G01*
X33265Y-24906D02*
X32865Y-24906D01*
X32865Y-24906D02*
X32865Y-24306D01*
X32865Y-24306D02*
X33265Y-24306D01*
X33665Y-24306D02*
X34065Y-24306D01*
X34065Y-24306D02*
X34065Y-24906D01*
X34065Y-24906D02*
X33665Y-24906D01*
X32865Y-25595D02*
G75*
G03X32865Y-25595I-50J0D01*
G74*
G01*
X33265Y-25595D02*
X32865Y-25595D01*
X32865Y-25595D02*
X32865Y-24995D01*
X32865Y-24995D02*
X33265Y-24995D01*
X33665Y-24995D02*
X34065Y-24995D01*
X34065Y-24995D02*
X34065Y-25595D01*
X34065Y-25595D02*
X33665Y-25595D01*
X32865Y-27662D02*
G75*
G03X32865Y-27662I-50J0D01*
G74*
G01*
X33265Y-27662D02*
X32865Y-27662D01*
X32865Y-27662D02*
X32865Y-27062D01*
X32865Y-27062D02*
X33265Y-27062D01*
X33665Y-27062D02*
X34065Y-27062D01*
X34065Y-27062D02*
X34065Y-27662D01*
X34065Y-27662D02*
X33665Y-27662D01*
X22693Y-25945D02*
G75*
G03X22693Y-25945I-50J0D01*
G74*
G01*
X22643Y-25495D02*
X22643Y-25895D01*
X22643Y-25895D02*
X22043Y-25895D01*
X22043Y-25895D02*
X22043Y-25495D01*
X22043Y-25095D02*
X22043Y-24695D01*
X22043Y-24695D02*
X22643Y-24695D01*
X22643Y-24695D02*
X22643Y-25095D01*
X35281Y-32519D02*
G75*
G03X35281Y-32519I-50J0D01*
G74*
G01*
X35231Y-32969D02*
X35231Y-32569D01*
X35231Y-32569D02*
X35831Y-32569D01*
X35831Y-32569D02*
X35831Y-32969D01*
X35831Y-33369D02*
X35831Y-33769D01*
X35831Y-33769D02*
X35231Y-33769D01*
X35231Y-33769D02*
X35231Y-33369D01*
X28392Y-32519D02*
G75*
G03X28392Y-32519I-50J0D01*
G74*
G01*
X28342Y-32969D02*
X28342Y-32569D01*
X28342Y-32569D02*
X28942Y-32569D01*
X28942Y-32569D02*
X28942Y-32969D01*
X28942Y-33369D02*
X28942Y-33769D01*
X28942Y-33769D02*
X28342Y-33769D01*
X28342Y-33769D02*
X28342Y-33369D01*
X27550Y-24906D02*
G75*
G03X27550Y-24906I-50J0D01*
G74*
G01*
X27950Y-24906D02*
X27550Y-24906D01*
X27550Y-24906D02*
X27550Y-24306D01*
X27550Y-24306D02*
X27950Y-24306D01*
X28350Y-24306D02*
X28750Y-24306D01*
X28750Y-24306D02*
X28750Y-24906D01*
X28750Y-24906D02*
X28350Y-24906D01*
X32427Y-29567D02*
G75*
G03X32427Y-29567I-50J0D01*
G74*
G01*
X32377Y-30017D02*
X32377Y-29617D01*
X32377Y-29617D02*
X32977Y-29617D01*
X32977Y-29617D02*
X32977Y-30017D01*
X32977Y-30417D02*
X32977Y-30817D01*
X32977Y-30817D02*
X32377Y-30817D01*
X32377Y-30817D02*
X32377Y-30417D01*
X26684Y-27850D02*
G75*
G03X26684Y-27850I-50J0D01*
G74*
G01*
X26184Y-27850D02*
X26584Y-27850D01*
X26584Y-27850D02*
X26584Y-28450D01*
X26584Y-28450D02*
X26184Y-28450D01*
X25784Y-28450D02*
X25384Y-28450D01*
X25384Y-28450D02*
X25384Y-27850D01*
X25384Y-27850D02*
X25784Y-27850D01*
X31748Y-25158D02*
G75*
G03X31748Y-25158I-50J0D01*
G74*
G01*
X31698Y-24708D02*
X31698Y-25108D01*
X31698Y-25108D02*
X31098Y-25108D01*
X31098Y-25108D02*
X31098Y-24708D01*
X31098Y-24308D02*
X31098Y-23908D01*
X31098Y-23908D02*
X31698Y-23908D01*
X31698Y-23908D02*
X31698Y-24308D01*
X26817Y-24448D02*
G75*
G03X26817Y-24448I-50J0D01*
G74*
G01*
X26767Y-24898D02*
X26767Y-24498D01*
X26767Y-24498D02*
X27367Y-24498D01*
X27367Y-24498D02*
X27367Y-24898D01*
X27367Y-25298D02*
X27367Y-25698D01*
X27367Y-25698D02*
X26767Y-25698D01*
X26767Y-25698D02*
X26767Y-25298D01*
X28687Y-31043D02*
G75*
G03X28687Y-31043I-50J0D01*
G74*
G01*
X28637Y-31493D02*
X28637Y-31093D01*
X28637Y-31093D02*
X29237Y-31093D01*
X29237Y-31093D02*
X29237Y-31493D01*
X29237Y-31893D02*
X29237Y-32293D01*
X29237Y-32293D02*
X28637Y-32293D01*
X28637Y-32293D02*
X28637Y-31893D01*
G54D13*
X30137Y-32519D02*
X30137Y-32669D01*
X30137Y-33819D02*
X30137Y-33669D01*
X34037Y-33819D02*
X34037Y-33669D01*
X34037Y-32519D02*
X34037Y-32669D01*
X34337Y-32169D02*
X34337Y-32669D01*
X34337Y-34169D02*
X34337Y-33669D01*
X29837Y-34169D02*
X29837Y-33669D01*
X29837Y-32169D02*
X29837Y-32669D01*
X30137Y-33819D02*
X30387Y-34069D01*
X30387Y-34069D02*
X33787Y-34069D01*
X33787Y-34069D02*
X34037Y-33819D01*
X34037Y-32519D02*
X33787Y-32269D01*
X33787Y-32269D02*
X30387Y-32269D01*
X30387Y-32269D02*
X30137Y-32519D01*
X34337Y-34169D02*
X29837Y-34169D01*
X29837Y-32169D02*
X34337Y-32169D01*
G54D15*
X35727Y-24921D02*
X35727Y-25049D01*
X35727Y-25049D02*
X35924Y-25049D01*
X35924Y-24921D02*
X35924Y-25049D01*
X35727Y-24921D02*
X35924Y-24921D01*
X35727Y-24676D02*
X35727Y-24735D01*
X35727Y-24735D02*
X35826Y-24735D01*
X35826Y-24676D02*
X35826Y-24735D01*
X35727Y-24676D02*
X35826Y-24676D01*
X35727Y-24871D02*
X35727Y-24930D01*
X35727Y-24930D02*
X35826Y-24930D01*
X35826Y-24871D02*
X35826Y-24930D01*
X35727Y-24871D02*
X35826Y-24871D01*
X35727Y-24725D02*
X35727Y-24881D01*
X35727Y-24881D02*
X35796Y-24881D01*
X35796Y-24725D02*
X35796Y-24881D01*
X35727Y-24725D02*
X35796Y-24725D01*
X35138Y-24921D02*
X35138Y-25049D01*
X35138Y-25049D02*
X35335Y-25049D01*
X35335Y-24921D02*
X35335Y-25049D01*
X35138Y-24921D02*
X35335Y-24921D01*
X35138Y-24557D02*
X35138Y-24685D01*
X35138Y-24685D02*
X35335Y-24685D01*
X35335Y-24557D02*
X35335Y-24685D01*
X35138Y-24557D02*
X35335Y-24557D01*
X35236Y-24871D02*
X35236Y-24930D01*
X35236Y-24930D02*
X35335Y-24930D01*
X35335Y-24871D02*
X35335Y-24930D01*
X35236Y-24871D02*
X35335Y-24871D01*
X35236Y-24676D02*
X35236Y-24735D01*
X35236Y-24735D02*
X35335Y-24735D01*
X35335Y-24676D02*
X35335Y-24735D01*
X35236Y-24676D02*
X35335Y-24676D01*
X35266Y-24725D02*
X35266Y-24881D01*
X35266Y-24881D02*
X35335Y-24881D01*
X35335Y-24725D02*
X35335Y-24881D01*
X35266Y-24725D02*
X35335Y-24725D01*
X35531Y-24764D02*
X35531Y-24842D01*
X35531Y-24842D02*
X35609Y-24842D01*
X35609Y-24764D02*
X35609Y-24842D01*
X35531Y-24764D02*
X35609Y-24764D01*
X35727Y-24567D02*
X35727Y-24685D01*
X35727Y-24685D02*
X35845Y-24685D01*
X35845Y-24567D02*
X35845Y-24685D01*
X35727Y-24567D02*
X35845Y-24567D01*
X35895Y-24557D02*
X35895Y-24646D01*
X35895Y-24646D02*
X35924Y-24646D01*
X35924Y-24557D02*
X35924Y-24646D01*
X35895Y-24557D02*
X35924Y-24557D01*
G54D16*
X35737Y-25029D02*
X35325Y-25029D01*
X35335Y-24577D02*
X35895Y-24577D01*
G54D17*
X35893Y-24626D02*
G75*
G03X35893Y-24626I-28J0D01*
G74*
G01*
G54D16*
X35924Y-24666D02*
G75*
G03X35924Y-24940I0J-137D01*
G74*
G01*
X35138Y-24940D02*
G75*
G03X35138Y-24666I0J137D01*
G74*
G01*
G54D15*
X35727Y-24134D02*
X35727Y-24262D01*
X35727Y-24262D02*
X35924Y-24262D01*
X35924Y-24134D02*
X35924Y-24262D01*
X35727Y-24134D02*
X35924Y-24134D01*
X35727Y-23889D02*
X35727Y-23948D01*
X35727Y-23948D02*
X35826Y-23948D01*
X35826Y-23889D02*
X35826Y-23948D01*
X35727Y-23889D02*
X35826Y-23889D01*
X35727Y-24084D02*
X35727Y-24143D01*
X35727Y-24143D02*
X35826Y-24143D01*
X35826Y-24084D02*
X35826Y-24143D01*
X35727Y-24084D02*
X35826Y-24084D01*
X35727Y-23938D02*
X35727Y-24094D01*
X35727Y-24094D02*
X35796Y-24094D01*
X35796Y-23938D02*
X35796Y-24094D01*
X35727Y-23938D02*
X35796Y-23938D01*
X35138Y-24134D02*
X35138Y-24262D01*
X35138Y-24262D02*
X35335Y-24262D01*
X35335Y-24134D02*
X35335Y-24262D01*
X35138Y-24134D02*
X35335Y-24134D01*
X35138Y-23770D02*
X35138Y-23898D01*
X35138Y-23898D02*
X35335Y-23898D01*
X35335Y-23770D02*
X35335Y-23898D01*
X35138Y-23770D02*
X35335Y-23770D01*
X35236Y-24084D02*
X35236Y-24143D01*
X35236Y-24143D02*
X35335Y-24143D01*
X35335Y-24084D02*
X35335Y-24143D01*
X35236Y-24084D02*
X35335Y-24084D01*
X35236Y-23889D02*
X35236Y-23948D01*
X35236Y-23948D02*
X35335Y-23948D01*
X35335Y-23889D02*
X35335Y-23948D01*
X35236Y-23889D02*
X35335Y-23889D01*
X35266Y-23938D02*
X35266Y-24094D01*
X35266Y-24094D02*
X35335Y-24094D01*
X35335Y-23938D02*
X35335Y-24094D01*
X35266Y-23938D02*
X35335Y-23938D01*
X35531Y-23977D02*
X35531Y-24055D01*
X35531Y-24055D02*
X35609Y-24055D01*
X35609Y-23977D02*
X35609Y-24055D01*
X35531Y-23977D02*
X35609Y-23977D01*
X35727Y-23780D02*
X35727Y-23898D01*
X35727Y-23898D02*
X35845Y-23898D01*
X35845Y-23780D02*
X35845Y-23898D01*
X35727Y-23780D02*
X35845Y-23780D01*
X35895Y-23770D02*
X35895Y-23859D01*
X35895Y-23859D02*
X35924Y-23859D01*
X35924Y-23770D02*
X35924Y-23859D01*
X35895Y-23770D02*
X35924Y-23770D01*
G54D16*
X35737Y-24242D02*
X35325Y-24242D01*
X35335Y-23790D02*
X35895Y-23790D01*
G54D17*
X35893Y-23839D02*
G75*
G03X35893Y-23839I-28J0D01*
G74*
G01*
G54D16*
X35924Y-23879D02*
G75*
G03X35924Y-24153I0J-137D01*
G74*
G01*
X35138Y-24153D02*
G75*
G03X35138Y-23879I0J137D01*
G74*
G01*
G54D14*
X32865Y-26973D02*
G75*
G03X32865Y-26973I-50J0D01*
G74*
G01*
X33265Y-26973D02*
X32865Y-26973D01*
X32865Y-26973D02*
X32865Y-26373D01*
X32865Y-26373D02*
X33265Y-26373D01*
X33665Y-26373D02*
X34065Y-26373D01*
X34065Y-26373D02*
X34065Y-26973D01*
X34065Y-26973D02*
X33665Y-26973D01*
X32865Y-26284D02*
G75*
G03X32865Y-26284I-50J0D01*
G74*
G01*
X33265Y-26284D02*
X32865Y-26284D01*
X32865Y-26284D02*
X32865Y-25684D01*
X32865Y-25684D02*
X33265Y-25684D01*
X33665Y-25684D02*
X34065Y-25684D01*
X34065Y-25684D02*
X34065Y-26284D01*
X34065Y-26284D02*
X33665Y-26284D01*
G54D12*
X34646Y-26132D02*
X35039Y-26132D01*
X35039Y-26132D02*
X35374Y-25797D01*
X35374Y-25797D02*
X35374Y-25492D01*
X36614Y-25492D02*
X36614Y-27460D01*
X36614Y-27460D02*
X34646Y-27460D01*
X34646Y-27460D02*
X34646Y-25492D01*
X34646Y-25492D02*
X36614Y-25492D01*
G54D14*
X25833Y-24448D02*
G75*
G03X25833Y-24448I-50J0D01*
G74*
G01*
X25783Y-24898D02*
X25783Y-24498D01*
X25783Y-24498D02*
X26383Y-24498D01*
X26383Y-24498D02*
X26383Y-24898D01*
X26383Y-25298D02*
X26383Y-25698D01*
X26383Y-25698D02*
X25783Y-25698D01*
X25783Y-25698D02*
X25783Y-25298D01*
X29582Y-24863D02*
G75*
G03X29582Y-24863I-50J0D01*
G74*
G01*
X29532Y-24413D02*
X29532Y-24813D01*
X29532Y-24813D02*
X28932Y-24813D01*
X28932Y-24813D02*
X28932Y-24413D01*
X28932Y-24013D02*
X28932Y-23613D01*
X28932Y-23613D02*
X29532Y-23613D01*
X29532Y-23613D02*
X29532Y-24013D01*
X30271Y-24863D02*
G75*
G03X30271Y-24863I-50J0D01*
G74*
G01*
X30221Y-24413D02*
X30221Y-24813D01*
X30221Y-24813D02*
X29621Y-24813D01*
X29621Y-24813D02*
X29621Y-24413D01*
X29621Y-24013D02*
X29621Y-23613D01*
X29621Y-23613D02*
X30221Y-23613D01*
X30221Y-23613D02*
X30221Y-24013D01*
X30960Y-24863D02*
G75*
G03X30960Y-24863I-50J0D01*
G74*
G01*
X30910Y-24413D02*
X30910Y-24813D01*
X30910Y-24813D02*
X30310Y-24813D01*
X30310Y-24813D02*
X30310Y-24413D01*
X30310Y-24013D02*
X30310Y-23613D01*
X30310Y-23613D02*
X30910Y-23613D01*
X30910Y-23613D02*
X30910Y-24013D01*
X34636Y-28450D02*
G75*
G03X34636Y-28450I-50J0D01*
G74*
G01*
X35036Y-28450D02*
X34636Y-28450D01*
X34636Y-28450D02*
X34636Y-27850D01*
X34636Y-27850D02*
X35036Y-27850D01*
X35436Y-27850D02*
X35836Y-27850D01*
X35836Y-27850D02*
X35836Y-28450D01*
X35836Y-28450D02*
X35436Y-28450D01*
X33258Y-28745D02*
G75*
G03X33258Y-28745I-50J0D01*
G74*
G01*
X33658Y-28745D02*
X33258Y-28745D01*
X33258Y-28745D02*
X33258Y-28145D01*
X33258Y-28145D02*
X33658Y-28145D01*
X34058Y-28145D02*
X34458Y-28145D01*
X34458Y-28145D02*
X34458Y-28745D01*
X34458Y-28745D02*
X34058Y-28745D01*
X34636Y-29434D02*
G75*
G03X34636Y-29434I-50J0D01*
G74*
G01*
X35036Y-29434D02*
X34636Y-29434D01*
X34636Y-29434D02*
X34636Y-28834D01*
X34636Y-28834D02*
X35036Y-28834D01*
X35436Y-28834D02*
X35836Y-28834D01*
X35836Y-28834D02*
X35836Y-29434D01*
X35836Y-29434D02*
X35436Y-29434D01*
X33258Y-29729D02*
G75*
G03X33258Y-29729I-50J0D01*
G74*
G01*
X33658Y-29729D02*
X33258Y-29729D01*
X33258Y-29729D02*
X33258Y-29129D01*
X33258Y-29129D02*
X33658Y-29129D01*
X34058Y-29129D02*
X34458Y-29129D01*
X34458Y-29129D02*
X34458Y-29729D01*
X34458Y-29729D02*
X34058Y-29729D01*
G54D18*
X37000Y-31500D02*
X38000Y-31500D01*
X38000Y-31500D02*
X38000Y-34500D01*
X38000Y-34500D02*
X37000Y-34500D01*
X37000Y-34500D02*
X37000Y-31500D01*
X38000Y-32500D02*
X37000Y-32500D01*
G54D11*
X18941Y-30934D02*
X19370Y-30934D01*
X19456Y-30962D01*
X19513Y-31019D01*
X19541Y-31105D01*
X19541Y-31162D01*
X19541Y-30334D02*
X19541Y-30676D01*
X19541Y-30505D02*
X18941Y-30505D01*
X19027Y-30562D01*
X19084Y-30619D01*
X19113Y-30676D01*
G54D13*
X29223Y-26845D02*
X29223Y-27331D01*
X29242Y-27388D01*
X29261Y-27417D01*
X29299Y-27445D01*
X29375Y-27445D01*
X29413Y-27417D01*
X29432Y-27388D01*
X29451Y-27331D01*
X29451Y-26845D01*
X29623Y-26903D02*
X29642Y-26874D01*
X29680Y-26845D01*
X29775Y-26845D01*
X29813Y-26874D01*
X29832Y-26903D01*
X29851Y-26960D01*
X29851Y-27017D01*
X29832Y-27103D01*
X29604Y-27445D01*
X29851Y-27445D01*
G54D11*
X22764Y-33216D02*
X22793Y-33245D01*
X22821Y-33330D01*
X22821Y-33387D01*
X22793Y-33473D01*
X22736Y-33530D01*
X22679Y-33559D01*
X22564Y-33587D01*
X22479Y-33587D01*
X22364Y-33559D01*
X22307Y-33530D01*
X22250Y-33473D01*
X22221Y-33387D01*
X22221Y-33330D01*
X22250Y-33245D01*
X22279Y-33216D01*
X22221Y-32845D02*
X22221Y-32730D01*
X22250Y-32673D01*
X22307Y-32616D01*
X22421Y-32587D01*
X22621Y-32587D01*
X22736Y-32616D01*
X22793Y-32673D01*
X22821Y-32730D01*
X22821Y-32845D01*
X22793Y-32902D01*
X22736Y-32959D01*
X22621Y-32987D01*
X22421Y-32987D01*
X22307Y-32959D01*
X22250Y-32902D01*
X22221Y-32845D01*
X22821Y-32330D02*
X22221Y-32330D01*
X22821Y-31988D01*
X22221Y-31988D01*
X22821Y-31388D02*
X22821Y-31730D01*
X22821Y-31559D02*
X22221Y-31559D01*
X22307Y-31616D01*
X22364Y-31673D01*
X22393Y-31730D01*
G54D14*
X27714Y-31400D02*
X27631Y-31281D01*
X27571Y-31400D02*
X27571Y-31150D01*
X27666Y-31150D01*
X27690Y-31162D01*
X27702Y-31174D01*
X27714Y-31197D01*
X27714Y-31233D01*
X27702Y-31257D01*
X27690Y-31269D01*
X27666Y-31281D01*
X27571Y-31281D01*
X27952Y-31400D02*
X27809Y-31400D01*
X27881Y-31400D02*
X27881Y-31150D01*
X27857Y-31185D01*
X27833Y-31209D01*
X27809Y-31221D01*
X24171Y-26874D02*
X24088Y-26755D01*
X24028Y-26874D02*
X24028Y-26624D01*
X24123Y-26624D01*
X24147Y-26636D01*
X24159Y-26648D01*
X24171Y-26671D01*
X24171Y-26707D01*
X24159Y-26731D01*
X24147Y-26743D01*
X24123Y-26755D01*
X24028Y-26755D01*
X24266Y-26648D02*
X24278Y-26636D01*
X24302Y-26624D01*
X24361Y-26624D01*
X24385Y-26636D01*
X24397Y-26648D01*
X24409Y-26671D01*
X24409Y-26695D01*
X24397Y-26731D01*
X24254Y-26874D01*
X24409Y-26874D01*
X24171Y-27661D02*
X24088Y-27542D01*
X24028Y-27661D02*
X24028Y-27411D01*
X24123Y-27411D01*
X24147Y-27423D01*
X24159Y-27435D01*
X24171Y-27458D01*
X24171Y-27494D01*
X24159Y-27518D01*
X24147Y-27530D01*
X24123Y-27542D01*
X24028Y-27542D01*
X24254Y-27411D02*
X24409Y-27411D01*
X24326Y-27506D01*
X24361Y-27506D01*
X24385Y-27518D01*
X24397Y-27530D01*
X24409Y-27554D01*
X24409Y-27613D01*
X24397Y-27637D01*
X24385Y-27649D01*
X24361Y-27661D01*
X24290Y-27661D01*
X24266Y-27649D01*
X24254Y-27637D01*
X33423Y-24707D02*
X33340Y-24588D01*
X33280Y-24707D02*
X33280Y-24457D01*
X33375Y-24457D01*
X33399Y-24469D01*
X33411Y-24481D01*
X33423Y-24504D01*
X33423Y-24540D01*
X33411Y-24564D01*
X33399Y-24576D01*
X33375Y-24588D01*
X33280Y-24588D01*
X33637Y-24540D02*
X33637Y-24707D01*
X33578Y-24445D02*
X33518Y-24623D01*
X33673Y-24623D01*
X33423Y-25396D02*
X33340Y-25277D01*
X33280Y-25396D02*
X33280Y-25146D01*
X33375Y-25146D01*
X33399Y-25158D01*
X33411Y-25170D01*
X33423Y-25193D01*
X33423Y-25229D01*
X33411Y-25253D01*
X33399Y-25265D01*
X33375Y-25277D01*
X33280Y-25277D01*
X33649Y-25146D02*
X33530Y-25146D01*
X33518Y-25265D01*
X33530Y-25253D01*
X33554Y-25241D01*
X33613Y-25241D01*
X33637Y-25253D01*
X33649Y-25265D01*
X33661Y-25289D01*
X33661Y-25348D01*
X33649Y-25372D01*
X33637Y-25384D01*
X33613Y-25396D01*
X33554Y-25396D01*
X33530Y-25384D01*
X33518Y-25372D01*
X33423Y-27463D02*
X33340Y-27344D01*
X33280Y-27463D02*
X33280Y-27213D01*
X33375Y-27213D01*
X33399Y-27225D01*
X33411Y-27237D01*
X33423Y-27260D01*
X33423Y-27296D01*
X33411Y-27320D01*
X33399Y-27332D01*
X33375Y-27344D01*
X33280Y-27344D01*
X33637Y-27213D02*
X33590Y-27213D01*
X33566Y-27225D01*
X33554Y-27237D01*
X33530Y-27272D01*
X33518Y-27320D01*
X33518Y-27415D01*
X33530Y-27439D01*
X33542Y-27451D01*
X33566Y-27463D01*
X33613Y-27463D01*
X33637Y-27451D01*
X33649Y-27439D01*
X33661Y-27415D01*
X33661Y-27356D01*
X33649Y-27332D01*
X33637Y-27320D01*
X33613Y-27308D01*
X33566Y-27308D01*
X33542Y-27320D01*
X33530Y-27332D01*
X33518Y-27356D01*
X22420Y-25336D02*
X22432Y-25348D01*
X22444Y-25384D01*
X22444Y-25408D01*
X22432Y-25443D01*
X22408Y-25467D01*
X22384Y-25479D01*
X22337Y-25491D01*
X22301Y-25491D01*
X22253Y-25479D01*
X22229Y-25467D01*
X22206Y-25443D01*
X22194Y-25408D01*
X22194Y-25384D01*
X22206Y-25348D01*
X22218Y-25336D01*
X22444Y-25098D02*
X22444Y-25241D01*
X22444Y-25170D02*
X22194Y-25170D01*
X22229Y-25193D01*
X22253Y-25217D01*
X22265Y-25241D01*
X35608Y-33329D02*
X35620Y-33341D01*
X35632Y-33377D01*
X35632Y-33401D01*
X35620Y-33436D01*
X35596Y-33460D01*
X35572Y-33472D01*
X35525Y-33484D01*
X35489Y-33484D01*
X35441Y-33472D01*
X35417Y-33460D01*
X35394Y-33436D01*
X35382Y-33401D01*
X35382Y-33377D01*
X35394Y-33341D01*
X35406Y-33329D01*
X35632Y-33091D02*
X35632Y-33234D01*
X35632Y-33163D02*
X35382Y-33163D01*
X35417Y-33186D01*
X35441Y-33210D01*
X35453Y-33234D01*
X35382Y-32936D02*
X35382Y-32913D01*
X35394Y-32889D01*
X35406Y-32877D01*
X35429Y-32865D01*
X35477Y-32853D01*
X35536Y-32853D01*
X35584Y-32865D01*
X35608Y-32877D01*
X35620Y-32889D01*
X35632Y-32913D01*
X35632Y-32936D01*
X35620Y-32960D01*
X35608Y-32972D01*
X35584Y-32984D01*
X35536Y-32996D01*
X35477Y-32996D01*
X35429Y-32984D01*
X35406Y-32972D01*
X35394Y-32960D01*
X35382Y-32936D01*
X28719Y-33210D02*
X28731Y-33222D01*
X28743Y-33258D01*
X28743Y-33282D01*
X28731Y-33317D01*
X28707Y-33341D01*
X28683Y-33353D01*
X28636Y-33365D01*
X28600Y-33365D01*
X28552Y-33353D01*
X28528Y-33341D01*
X28505Y-33317D01*
X28493Y-33282D01*
X28493Y-33258D01*
X28505Y-33222D01*
X28517Y-33210D01*
X28743Y-33091D02*
X28743Y-33044D01*
X28731Y-33020D01*
X28719Y-33008D01*
X28683Y-32984D01*
X28636Y-32972D01*
X28540Y-32972D01*
X28517Y-32984D01*
X28505Y-32996D01*
X28493Y-33020D01*
X28493Y-33067D01*
X28505Y-33091D01*
X28517Y-33103D01*
X28540Y-33115D01*
X28600Y-33115D01*
X28624Y-33103D01*
X28636Y-33091D01*
X28647Y-33067D01*
X28647Y-33020D01*
X28636Y-32996D01*
X28624Y-32984D01*
X28600Y-32972D01*
X28108Y-24683D02*
X28096Y-24695D01*
X28060Y-24707D01*
X28036Y-24707D01*
X28001Y-24695D01*
X27977Y-24671D01*
X27965Y-24647D01*
X27953Y-24600D01*
X27953Y-24564D01*
X27965Y-24516D01*
X27977Y-24492D01*
X28001Y-24469D01*
X28036Y-24457D01*
X28060Y-24457D01*
X28096Y-24469D01*
X28108Y-24481D01*
X28251Y-24564D02*
X28227Y-24552D01*
X28215Y-24540D01*
X28203Y-24516D01*
X28203Y-24504D01*
X28215Y-24481D01*
X28227Y-24469D01*
X28251Y-24457D01*
X28298Y-24457D01*
X28322Y-24469D01*
X28334Y-24481D01*
X28346Y-24504D01*
X28346Y-24516D01*
X28334Y-24540D01*
X28322Y-24552D01*
X28298Y-24564D01*
X28251Y-24564D01*
X28227Y-24576D01*
X28215Y-24588D01*
X28203Y-24611D01*
X28203Y-24659D01*
X28215Y-24683D01*
X28227Y-24695D01*
X28251Y-24707D01*
X28298Y-24707D01*
X28322Y-24695D01*
X28334Y-24683D01*
X28346Y-24659D01*
X28346Y-24611D01*
X28334Y-24588D01*
X28322Y-24576D01*
X28298Y-24564D01*
X32754Y-30258D02*
X32766Y-30270D01*
X32778Y-30306D01*
X32778Y-30330D01*
X32766Y-30365D01*
X32742Y-30389D01*
X32718Y-30401D01*
X32671Y-30413D01*
X32635Y-30413D01*
X32587Y-30401D01*
X32563Y-30389D01*
X32540Y-30365D01*
X32528Y-30330D01*
X32528Y-30306D01*
X32540Y-30270D01*
X32552Y-30258D01*
X32528Y-30044D02*
X32528Y-30092D01*
X32540Y-30115D01*
X32552Y-30127D01*
X32587Y-30151D01*
X32635Y-30163D01*
X32730Y-30163D01*
X32754Y-30151D01*
X32766Y-30139D01*
X32778Y-30115D01*
X32778Y-30068D01*
X32766Y-30044D01*
X32754Y-30032D01*
X32730Y-30020D01*
X32671Y-30020D01*
X32647Y-30032D01*
X32635Y-30044D01*
X32623Y-30068D01*
X32623Y-30115D01*
X32635Y-30139D01*
X32647Y-30151D01*
X32671Y-30163D01*
X25942Y-28227D02*
X25930Y-28239D01*
X25894Y-28251D01*
X25870Y-28251D01*
X25835Y-28239D01*
X25811Y-28215D01*
X25799Y-28191D01*
X25787Y-28144D01*
X25787Y-28108D01*
X25799Y-28060D01*
X25811Y-28036D01*
X25835Y-28013D01*
X25870Y-28001D01*
X25894Y-28001D01*
X25930Y-28013D01*
X25942Y-28025D01*
X26168Y-28001D02*
X26049Y-28001D01*
X26037Y-28120D01*
X26049Y-28108D01*
X26073Y-28096D01*
X26132Y-28096D01*
X26156Y-28108D01*
X26168Y-28120D01*
X26180Y-28144D01*
X26180Y-28203D01*
X26168Y-28227D01*
X26156Y-28239D01*
X26132Y-28251D01*
X26073Y-28251D01*
X26049Y-28239D01*
X26037Y-28227D01*
X31475Y-24549D02*
X31487Y-24561D01*
X31499Y-24597D01*
X31499Y-24621D01*
X31487Y-24656D01*
X31463Y-24680D01*
X31439Y-24692D01*
X31392Y-24704D01*
X31356Y-24704D01*
X31308Y-24692D01*
X31284Y-24680D01*
X31261Y-24656D01*
X31249Y-24621D01*
X31249Y-24597D01*
X31261Y-24561D01*
X31273Y-24549D01*
X31332Y-24335D02*
X31499Y-24335D01*
X31237Y-24394D02*
X31415Y-24454D01*
X31415Y-24299D01*
X27144Y-25139D02*
X27156Y-25151D01*
X27168Y-25187D01*
X27168Y-25211D01*
X27156Y-25246D01*
X27132Y-25270D01*
X27108Y-25282D01*
X27061Y-25294D01*
X27025Y-25294D01*
X26977Y-25282D01*
X26953Y-25270D01*
X26930Y-25246D01*
X26918Y-25211D01*
X26918Y-25187D01*
X26930Y-25151D01*
X26942Y-25139D01*
X26918Y-25056D02*
X26918Y-24901D01*
X27013Y-24984D01*
X27013Y-24949D01*
X27025Y-24925D01*
X27037Y-24913D01*
X27061Y-24901D01*
X27120Y-24901D01*
X27144Y-24913D01*
X27156Y-24925D01*
X27168Y-24949D01*
X27168Y-25020D01*
X27156Y-25044D01*
X27144Y-25056D01*
X29014Y-31734D02*
X29026Y-31746D01*
X29038Y-31782D01*
X29038Y-31806D01*
X29026Y-31841D01*
X29002Y-31865D01*
X28978Y-31877D01*
X28931Y-31889D01*
X28895Y-31889D01*
X28847Y-31877D01*
X28823Y-31865D01*
X28800Y-31841D01*
X28788Y-31806D01*
X28788Y-31782D01*
X28800Y-31746D01*
X28812Y-31734D01*
X28812Y-31639D02*
X28800Y-31627D01*
X28788Y-31603D01*
X28788Y-31544D01*
X28800Y-31520D01*
X28812Y-31508D01*
X28835Y-31496D01*
X28859Y-31496D01*
X28895Y-31508D01*
X29038Y-31651D01*
X29038Y-31496D01*
G54D13*
X31853Y-32310D02*
X32087Y-32660D01*
X32087Y-32310D02*
X31853Y-32660D01*
X32403Y-32660D02*
X32203Y-32660D01*
X32303Y-32660D02*
X32303Y-32310D01*
X32270Y-32360D01*
X32237Y-32394D01*
X32203Y-32410D01*
G54D14*
X35309Y-24424D02*
X35309Y-24124D01*
X35381Y-24124D01*
X35423Y-24138D01*
X35452Y-24167D01*
X35466Y-24195D01*
X35481Y-24253D01*
X35481Y-24295D01*
X35466Y-24353D01*
X35452Y-24381D01*
X35423Y-24410D01*
X35381Y-24424D01*
X35309Y-24424D01*
X35595Y-24153D02*
X35609Y-24138D01*
X35638Y-24124D01*
X35709Y-24124D01*
X35738Y-24138D01*
X35752Y-24153D01*
X35766Y-24181D01*
X35766Y-24210D01*
X35752Y-24253D01*
X35581Y-24424D01*
X35766Y-24424D01*
X35309Y-23637D02*
X35309Y-23337D01*
X35381Y-23337D01*
X35423Y-23351D01*
X35452Y-23380D01*
X35466Y-23408D01*
X35481Y-23466D01*
X35481Y-23508D01*
X35466Y-23566D01*
X35452Y-23594D01*
X35423Y-23623D01*
X35381Y-23637D01*
X35309Y-23637D01*
X35766Y-23637D02*
X35595Y-23637D01*
X35681Y-23637D02*
X35681Y-23337D01*
X35652Y-23380D01*
X35623Y-23408D01*
X35595Y-23423D01*
G54D19*
X40727Y-32284D02*
X40727Y-31989D01*
X40839Y-31989D01*
X40867Y-32003D01*
X40881Y-32017D01*
X40895Y-32045D01*
X40895Y-32087D01*
X40881Y-32115D01*
X40867Y-32129D01*
X40839Y-32143D01*
X40727Y-32143D01*
X41036Y-32284D02*
X41092Y-32284D01*
X41120Y-32270D01*
X41134Y-32256D01*
X41162Y-32214D01*
X41176Y-32157D01*
X41176Y-32045D01*
X41162Y-32017D01*
X41148Y-32003D01*
X41120Y-31989D01*
X41064Y-31989D01*
X41036Y-32003D01*
X41022Y-32017D01*
X41008Y-32045D01*
X41008Y-32115D01*
X41022Y-32143D01*
X41036Y-32157D01*
X41064Y-32172D01*
X41120Y-32172D01*
X41148Y-32157D01*
X41162Y-32143D01*
X41176Y-32115D01*
G54D20*
G54D19*
X40727Y-28347D02*
X40727Y-28052D01*
X40839Y-28052D01*
X40867Y-28066D01*
X40881Y-28080D01*
X40895Y-28108D01*
X40895Y-28150D01*
X40881Y-28178D01*
X40867Y-28192D01*
X40839Y-28206D01*
X40727Y-28206D01*
X41064Y-28178D02*
X41036Y-28164D01*
X41022Y-28150D01*
X41008Y-28122D01*
X41008Y-28108D01*
X41022Y-28080D01*
X41036Y-28066D01*
X41064Y-28052D01*
X41120Y-28052D01*
X41148Y-28066D01*
X41162Y-28080D01*
X41176Y-28108D01*
X41176Y-28122D01*
X41162Y-28150D01*
X41148Y-28164D01*
X41120Y-28178D01*
X41064Y-28178D01*
X41036Y-28192D01*
X41022Y-28206D01*
X41008Y-28235D01*
X41008Y-28291D01*
X41022Y-28319D01*
X41036Y-28333D01*
X41064Y-28347D01*
X41120Y-28347D01*
X41148Y-28333D01*
X41162Y-28319D01*
X41176Y-28291D01*
X41176Y-28235D01*
X41162Y-28206D01*
X41148Y-28192D01*
X41120Y-28178D01*
G54D20*
G54D19*
X40727Y-24410D02*
X40727Y-24115D01*
X40839Y-24115D01*
X40867Y-24129D01*
X40881Y-24143D01*
X40895Y-24171D01*
X40895Y-24213D01*
X40881Y-24241D01*
X40867Y-24255D01*
X40839Y-24269D01*
X40727Y-24269D01*
X40994Y-24115D02*
X41190Y-24115D01*
X41064Y-24410D01*
G54D20*
G54D19*
X40727Y-20473D02*
X40727Y-20178D01*
X40839Y-20178D01*
X40867Y-20192D01*
X40881Y-20206D01*
X40895Y-20234D01*
X40895Y-20276D01*
X40881Y-20304D01*
X40867Y-20318D01*
X40839Y-20332D01*
X40727Y-20332D01*
X41148Y-20178D02*
X41092Y-20178D01*
X41064Y-20192D01*
X41050Y-20206D01*
X41022Y-20248D01*
X41008Y-20304D01*
X41008Y-20417D01*
X41022Y-20445D01*
X41036Y-20459D01*
X41064Y-20473D01*
X41120Y-20473D01*
X41148Y-20459D01*
X41162Y-20445D01*
X41176Y-20417D01*
X41176Y-20346D01*
X41162Y-20318D01*
X41148Y-20304D01*
X41120Y-20290D01*
X41064Y-20290D01*
X41036Y-20304D01*
X41022Y-20318D01*
X41008Y-20346D01*
G54D20*
G54D14*
X33423Y-26774D02*
X33340Y-26655D01*
X33280Y-26774D02*
X33280Y-26524D01*
X33375Y-26524D01*
X33399Y-26536D01*
X33411Y-26548D01*
X33423Y-26571D01*
X33423Y-26607D01*
X33411Y-26631D01*
X33399Y-26643D01*
X33375Y-26655D01*
X33280Y-26655D01*
X33506Y-26524D02*
X33673Y-26524D01*
X33566Y-26774D01*
X33423Y-26085D02*
X33340Y-25966D01*
X33280Y-26085D02*
X33280Y-25835D01*
X33375Y-25835D01*
X33399Y-25847D01*
X33411Y-25859D01*
X33423Y-25882D01*
X33423Y-25918D01*
X33411Y-25942D01*
X33399Y-25954D01*
X33375Y-25966D01*
X33280Y-25966D01*
X33566Y-25942D02*
X33542Y-25930D01*
X33530Y-25918D01*
X33518Y-25894D01*
X33518Y-25882D01*
X33530Y-25859D01*
X33542Y-25847D01*
X33566Y-25835D01*
X33613Y-25835D01*
X33637Y-25847D01*
X33649Y-25859D01*
X33661Y-25882D01*
X33661Y-25894D01*
X33649Y-25918D01*
X33637Y-25930D01*
X33613Y-25942D01*
X33566Y-25942D01*
X33542Y-25954D01*
X33530Y-25966D01*
X33518Y-25989D01*
X33518Y-26037D01*
X33530Y-26061D01*
X33542Y-26073D01*
X33566Y-26085D01*
X33613Y-26085D01*
X33637Y-26073D01*
X33649Y-26061D01*
X33661Y-26037D01*
X33661Y-25989D01*
X33649Y-25966D01*
X33637Y-25954D01*
X33613Y-25942D01*
G54D11*
X35872Y-26918D02*
X35272Y-26918D01*
X35272Y-26776D01*
X35301Y-26690D01*
X35358Y-26633D01*
X35415Y-26604D01*
X35530Y-26576D01*
X35615Y-26576D01*
X35730Y-26604D01*
X35787Y-26633D01*
X35844Y-26690D01*
X35872Y-26776D01*
X35872Y-26918D01*
X35272Y-26376D02*
X35272Y-26004D01*
X35501Y-26204D01*
X35501Y-26118D01*
X35530Y-26061D01*
X35558Y-26033D01*
X35615Y-26004D01*
X35758Y-26004D01*
X35815Y-26033D01*
X35844Y-26061D01*
X35872Y-26118D01*
X35872Y-26290D01*
X35844Y-26347D01*
X35815Y-26376D01*
G54D14*
X26184Y-25139D02*
X26184Y-25258D01*
X25934Y-25258D01*
X26184Y-24925D02*
X26184Y-25068D01*
X26184Y-24996D02*
X25934Y-24996D01*
X25969Y-25020D01*
X25993Y-25044D01*
X26005Y-25068D01*
X29333Y-24254D02*
X29214Y-24338D01*
X29333Y-24397D02*
X29083Y-24397D01*
X29083Y-24302D01*
X29095Y-24278D01*
X29107Y-24266D01*
X29130Y-24254D01*
X29166Y-24254D01*
X29190Y-24266D01*
X29202Y-24278D01*
X29214Y-24302D01*
X29214Y-24397D01*
X29333Y-24135D02*
X29333Y-24088D01*
X29321Y-24064D01*
X29309Y-24052D01*
X29273Y-24028D01*
X29226Y-24016D01*
X29130Y-24016D01*
X29107Y-24028D01*
X29095Y-24040D01*
X29083Y-24064D01*
X29083Y-24111D01*
X29095Y-24135D01*
X29107Y-24147D01*
X29130Y-24159D01*
X29190Y-24159D01*
X29214Y-24147D01*
X29226Y-24135D01*
X29237Y-24111D01*
X29237Y-24064D01*
X29226Y-24040D01*
X29214Y-24028D01*
X29190Y-24016D01*
X30022Y-24373D02*
X29903Y-24457D01*
X30022Y-24516D02*
X29772Y-24516D01*
X29772Y-24421D01*
X29784Y-24397D01*
X29796Y-24385D01*
X29819Y-24373D01*
X29855Y-24373D01*
X29879Y-24385D01*
X29891Y-24397D01*
X29903Y-24421D01*
X29903Y-24516D01*
X30022Y-24135D02*
X30022Y-24278D01*
X30022Y-24207D02*
X29772Y-24207D01*
X29807Y-24230D01*
X29831Y-24254D01*
X29843Y-24278D01*
X29772Y-23980D02*
X29772Y-23957D01*
X29784Y-23933D01*
X29796Y-23921D01*
X29819Y-23909D01*
X29867Y-23897D01*
X29926Y-23897D01*
X29974Y-23909D01*
X29998Y-23921D01*
X30010Y-23933D01*
X30022Y-23957D01*
X30022Y-23980D01*
X30010Y-24004D01*
X29998Y-24016D01*
X29974Y-24028D01*
X29926Y-24040D01*
X29867Y-24040D01*
X29819Y-24028D01*
X29796Y-24016D01*
X29784Y-24004D01*
X29772Y-23980D01*
X30711Y-24373D02*
X30592Y-24457D01*
X30711Y-24516D02*
X30461Y-24516D01*
X30461Y-24421D01*
X30473Y-24397D01*
X30485Y-24385D01*
X30508Y-24373D01*
X30544Y-24373D01*
X30568Y-24385D01*
X30580Y-24397D01*
X30592Y-24421D01*
X30592Y-24516D01*
X30711Y-24135D02*
X30711Y-24278D01*
X30711Y-24207D02*
X30461Y-24207D01*
X30496Y-24230D01*
X30520Y-24254D01*
X30532Y-24278D01*
X30711Y-23897D02*
X30711Y-24040D01*
X30711Y-23968D02*
X30461Y-23968D01*
X30496Y-23992D01*
X30520Y-24016D01*
X30532Y-24040D01*
X35075Y-28251D02*
X34991Y-28132D01*
X34932Y-28251D02*
X34932Y-28001D01*
X35027Y-28001D01*
X35051Y-28013D01*
X35063Y-28025D01*
X35075Y-28048D01*
X35075Y-28084D01*
X35063Y-28108D01*
X35051Y-28120D01*
X35027Y-28132D01*
X34932Y-28132D01*
X35313Y-28251D02*
X35170Y-28251D01*
X35241Y-28251D02*
X35241Y-28001D01*
X35218Y-28036D01*
X35194Y-28060D01*
X35170Y-28072D01*
X35408Y-28025D02*
X35420Y-28013D01*
X35444Y-28001D01*
X35503Y-28001D01*
X35527Y-28013D01*
X35539Y-28025D01*
X35551Y-28048D01*
X35551Y-28072D01*
X35539Y-28108D01*
X35396Y-28251D01*
X35551Y-28251D01*
X33697Y-28546D02*
X33613Y-28427D01*
X33554Y-28546D02*
X33554Y-28296D01*
X33649Y-28296D01*
X33673Y-28308D01*
X33685Y-28320D01*
X33697Y-28343D01*
X33697Y-28379D01*
X33685Y-28403D01*
X33673Y-28415D01*
X33649Y-28427D01*
X33554Y-28427D01*
X33935Y-28546D02*
X33792Y-28546D01*
X33863Y-28546D02*
X33863Y-28296D01*
X33840Y-28331D01*
X33816Y-28355D01*
X33792Y-28367D01*
X34018Y-28296D02*
X34173Y-28296D01*
X34090Y-28391D01*
X34125Y-28391D01*
X34149Y-28403D01*
X34161Y-28415D01*
X34173Y-28439D01*
X34173Y-28498D01*
X34161Y-28522D01*
X34149Y-28534D01*
X34125Y-28546D01*
X34054Y-28546D01*
X34030Y-28534D01*
X34018Y-28522D01*
X35075Y-29235D02*
X34991Y-29116D01*
X34932Y-29235D02*
X34932Y-28985D01*
X35027Y-28985D01*
X35051Y-28997D01*
X35063Y-29009D01*
X35075Y-29032D01*
X35075Y-29068D01*
X35063Y-29092D01*
X35051Y-29104D01*
X35027Y-29116D01*
X34932Y-29116D01*
X35313Y-29235D02*
X35170Y-29235D01*
X35241Y-29235D02*
X35241Y-28985D01*
X35218Y-29020D01*
X35194Y-29044D01*
X35170Y-29056D01*
X35527Y-29068D02*
X35527Y-29235D01*
X35468Y-28973D02*
X35408Y-29151D01*
X35563Y-29151D01*
X33697Y-29530D02*
X33613Y-29411D01*
X33554Y-29530D02*
X33554Y-29280D01*
X33649Y-29280D01*
X33673Y-29292D01*
X33685Y-29304D01*
X33697Y-29327D01*
X33697Y-29363D01*
X33685Y-29387D01*
X33673Y-29399D01*
X33649Y-29411D01*
X33554Y-29411D01*
X33935Y-29530D02*
X33792Y-29530D01*
X33863Y-29530D02*
X33863Y-29280D01*
X33840Y-29315D01*
X33816Y-29339D01*
X33792Y-29351D01*
X34161Y-29280D02*
X34042Y-29280D01*
X34030Y-29399D01*
X34042Y-29387D01*
X34066Y-29375D01*
X34125Y-29375D01*
X34149Y-29387D01*
X34161Y-29399D01*
X34173Y-29423D01*
X34173Y-29482D01*
X34161Y-29506D01*
X34149Y-29518D01*
X34125Y-29530D01*
X34066Y-29530D01*
X34042Y-29518D01*
X34030Y-29506D01*
G54D18*
X38511Y-33395D02*
X38111Y-33395D01*
X38511Y-33166D02*
X38283Y-33338D01*
X38111Y-33166D02*
X38340Y-33395D01*
X38511Y-32785D02*
X38511Y-33014D01*
X38511Y-32899D02*
X38111Y-32899D01*
X38169Y-32938D01*
X38207Y-32976D01*
X38226Y-33014D01*
%LPC*%
G54D21*
X20500Y-26620D03*
X20500Y-26935D03*
X20500Y-27250D03*
X20500Y-27565D03*
X20500Y-27880D03*
G54D22*
X20500Y-25498D03*
X20500Y-29002D03*
X18335Y-29002D03*
X18335Y-25498D03*
G54D23*
X19516Y-26384D03*
X19516Y-28116D03*
G54D24*
X29528Y-25703D03*
X29213Y-25703D03*
X28898Y-25703D03*
X28583Y-25703D03*
X28268Y-25703D03*
X27953Y-25703D03*
X29843Y-25703D03*
X30158Y-25703D03*
X30473Y-25703D03*
X30788Y-25703D03*
X31103Y-25703D03*
X29528Y-30203D03*
X29213Y-30203D03*
X28898Y-30203D03*
X28583Y-30203D03*
X28268Y-30203D03*
X27953Y-30203D03*
X29843Y-30203D03*
X30158Y-30203D03*
X30473Y-30203D03*
X30788Y-30203D03*
X31103Y-30203D03*
G54D25*
X27278Y-27953D03*
X31778Y-27953D03*
X27278Y-28268D03*
X31778Y-28268D03*
X31778Y-28583D03*
X27278Y-28583D03*
X27278Y-28898D03*
X31778Y-28898D03*
X31778Y-29213D03*
X27278Y-29213D03*
X27278Y-29528D03*
X31778Y-29528D03*
X31778Y-27638D03*
X27278Y-27638D03*
X27278Y-27323D03*
X31778Y-27323D03*
X31778Y-27008D03*
X27278Y-27008D03*
X27278Y-26693D03*
X31778Y-26693D03*
X31778Y-26378D03*
X27278Y-26378D03*
G54D26*
X19079Y-30988D03*
X21079Y-30988D03*
X19079Y-31988D03*
X21079Y-31988D03*
X19079Y-32988D03*
X21079Y-32988D03*
G54D27*
X28131Y-31299D03*
X27381Y-31299D03*
X23838Y-26773D03*
X24588Y-26773D03*
X24588Y-27560D03*
X23838Y-27560D03*
X33090Y-24606D03*
X33840Y-24606D03*
X33090Y-25295D03*
X33840Y-25295D03*
X33090Y-27362D03*
X33840Y-27362D03*
G54D28*
X22343Y-25670D03*
X22343Y-24920D03*
X35531Y-32794D03*
X35531Y-33544D03*
X28642Y-32794D03*
X28642Y-33544D03*
G54D27*
X27775Y-24606D03*
X28525Y-24606D03*
G54D28*
X32677Y-29842D03*
X32677Y-30592D03*
G54D27*
X26359Y-28150D03*
X25609Y-28150D03*
G54D28*
X31398Y-24883D03*
X31398Y-24133D03*
X27067Y-24723D03*
X27067Y-25473D03*
X28937Y-31318D03*
X28937Y-32068D03*
G54D29*
X30237Y-33169D03*
X33937Y-33169D03*
G54D30*
X35118Y-24803D03*
X35944Y-24803D03*
X35118Y-24016D03*
X35944Y-24016D03*
G54D31*
X34252Y-19685D03*
X27559Y-19685D03*
X20866Y-19685D03*
G54D32*
X40945Y-31496D03*
X40945Y-27559D03*
X40945Y-23622D03*
X40945Y-19685D03*
G54D27*
X33090Y-26673D03*
X33840Y-26673D03*
X33090Y-25984D03*
X33840Y-25984D03*
G54D33*
X34646Y-25787D03*
X34646Y-26476D03*
X34646Y-27165D03*
X36615Y-25788D03*
X36615Y-26477D03*
X36615Y-27166D03*
G54D28*
X26083Y-24723D03*
X26083Y-25473D03*
X29232Y-24588D03*
X29232Y-23838D03*
X29921Y-24588D03*
X29921Y-23838D03*
X30610Y-24588D03*
X30610Y-23838D03*
G54D27*
X34861Y-28150D03*
X35611Y-28150D03*
X33483Y-28445D03*
X34233Y-28445D03*
X34861Y-29134D03*
X35611Y-29134D03*
X33483Y-29429D03*
X34233Y-29429D03*
G54D34*
X37500Y-32000D03*
G54D35*
X37500Y-33000D03*
X37500Y-34000D03*
M02*
